<?xml version="1.0" standalone="no"?>
<!DOCTYPE svg PUBLIC "-//W3C//DTD SVG 1.1//EN" "http://www.w3.org/Graphics/SVG/1.1/DTD/svg11.dtd" >
<svg xmlns="http://www.w3.org/2000/svg" xmlns:xlink="http://www.w3.org/1999/xlink" version="1.1" viewBox="0 0 256 256">
  <g transform="matrix(1 0 0 -1 0 204)">
   <path fill="currentColor"
d="M193 183q1 -3 5 -7q2 -2 4 -3q3 -4 5 -8q1 -5 -7 -7q-5 2 -7 -8q-14 -49 8 -143q3 -14 12 -25q-2 -5 -7 -4q-2 3 -6 7q-5 5 -6 7q-15 12 -27 30q-2 3 1 2q15 -17 23 -19q7 -2 6 2q-7 32 -11 58q-3 25 -3 56q-1 27 5 50q4 9 -1 15t-25 8q-32 -1 -58 -10q-10 -3 -19 -3
q-2 0 0 2q4 0 12 4q37 11 65 10q23 -2 31 -14zM63 170q2 2 2 -2q-1 -1 -1 -3q-4 -17 -1 -17q1 -4 8 2q10 7 11 5q3 -2 11 -6q1 -1 1 -4t-4 -3q-3 0 -3 -23v-23q4 0 19 6q4 2 7 3q2 13 2 21q-15 -5 -23 1q-3 2 1 2q6 -2 22 3q-1 21 -4 28q-2 4 2 2t12 -8q2 -1 3 -1q3 -2 3 -6
q0 -5 -1 -9q9 4 14 9q-1 5 4 4q11 -3 20 -6q2 -1 0 -3q-9 0 -20 -4q-9 -3 -19 -8q-3 -6 -6 -15q-1 -5 -2 -8q11 3 19 5l12 4q1 5 4 4q4 1 18 -7q0 -3 -3 -3q-8 1 -15 -1q-9 -3 -18 -4l-8 -4q-9 -6 -18 -11q-13 -11 -15 -19q5 -21 16 -23q1 1 2 -2q0 -4 2 -7q-1 -2 -4 -1
q-5 4 -11 6q-5 0 -4 5q1 11 -1 13q-3 1 -2 8q0 8 16 21q1 0 3 2q4 3 9 8q-6 -2 -24 -7q-10 -4 -11 -1q-1 -91 -54 -107q-2 1 -1 2q36 19 47 66q8 33 1 81q-2 7 -4 5q-11 -3 -14 -6q-5 -2 -6 1q-3 5 -5 9v3q1 3 4 10q4 7 7 13zM142 80q2 3 5 3q7 -4 12 -4q4 -5 3 -9
q-9 1 -12 -4q-1 -1 -3 -4q-1 -1 -8 -7q15 0 17 -3q0 -2 -2 -5q-4 -1 -11 1q-16 1 -21 -2q-2 -1 -2 1q0 1 6 5q1 0 2 1q-2 1 2 3q3 0 10 13q1 3 1 4q-1 1 -3 1q-12 -1 -28 -6q-4 -1 0 1q5 4 28 10q-1 -1 4 1z" />
  </g>

</svg>
