<?xml version="1.0" standalone="no"?>
<!DOCTYPE svg PUBLIC "-//W3C//DTD SVG 1.1//EN" "http://www.w3.org/Graphics/SVG/1.1/DTD/svg11.dtd" >
<svg xmlns="http://www.w3.org/2000/svg" xmlns:xlink="http://www.w3.org/1999/xlink" version="1.1" viewBox="0 0 256 256">
  <g transform="matrix(1 0 0 -1 0 204)">
   <path fill="currentColor"
d="M138 198q0 2 3 2q10 -5 14 -9v-1q2 -1 1 -4q-1 -2 -4 -1q-5 0 -6 -1l-4 -4q-13 -9 -22 -15q-3 -1 4 -2q1 0 5 -2h5t1 -3q0 -1 -6 -2h-3q-4 -1 -11 -3q-4 -2 -6 -2q-3 -1 -3 0q1 1 6 4q3 1 2 2q-2 1 -8 1q-6 -1 -5 1q0 4 2 5q0 1 3 1q2 -2 10 3q17 11 23 18q2 2 0 3t-6 0
q-14 -3 -37 -11q-3 -2 -6 0q-5 1 -10 6q-2 0 1 1q4 -1 16 1q2 0 4 1q7 1 14 3q9 2 16 4h1q4 1 6 4zM74 133q-2 -2 -1 -3q1 0 4 1q37 15 70 19q10 0 20 -4h2q1 -1 5 -4q3 -3 5 -3q2 -3 1 -4q-2 -4 -6 -3q-3 -1 -8 -3q-6 -1 -10 -2q-9 -4 -18 -3q-3 -1 -1 2q13 3 27 13
q1 0 1 2q0 1 -1 2q-5 1 -16 2q-31 -3 -66 -18q-3 -1 -12 -6q-2 -1 -3 0v1q-3 9 5 12q6 2 2 -1zM129 127l-1 -3q-2 -2 -3 -8v-1v-22q0 -8 -1 -12q-1 -2 -4 -3h-1q-2 0 -3 1t-1 2q-2 1 -6 6l-6 6l-1 2q1 0 4 -1q6 -4 9 -4q6 -3 6 6q0 5 -1 12v11q-7 -7 -12 -9q-28 -28 -55 -35
q-3 -1 0 1q31 16 66 51q0 4 -3 8q-3 1 0 2q1 -2 4 -3q7 -5 9 -7zM175 78q4 7 8 6q3 0 4 -1h2q4 -3 13 -7h3q8 -2 7 -8q-2 -5 -3 -3q-7 1 -17 5q-7 5 -19 3q-17 -2 -33 -4q-14 -2 -18 -2v-5q20 -23 45 -39q8 -7 22 -7q29 1 49 -9q0 -2 -2 -2q-18 2 -27 2h-18q-9 -2 -16 5
q-35 24 -53 45q-1 -20 -1 -42q0 -19 2 -29q-1 -1 0 -4t1 -5t-4 -2q-3 0 -3 2l-1 2q0 5 -6 10q-3 3 -8 9q-5 3 -6 5q-2 2 1 1q5 -4 16 -8q6 -2 6 1q-1 18 -3 56q-28 -32 -59 -45q-5 -1 -1 1q43 27 56 46q3 4 3 10q-45 -11 -56 -16q-5 -2 -7 0q-5 1 -11 3q-3 1 1 2q7 0 21 3
q5 1 9 2q12 3 30 7q9 2 13 3q0 3 -2 5v4q-1 2 1 1q3 -3 5 -4q5 -2 3 -5q23 4 53 8z" />
  </g>

</svg>
