<?xml version="1.0" standalone="no"?>
<!DOCTYPE svg PUBLIC "-//W3C//DTD SVG 1.1//EN" "http://www.w3.org/Graphics/SVG/1.1/DTD/svg11.dtd" >
<svg xmlns="http://www.w3.org/2000/svg" xmlns:xlink="http://www.w3.org/1999/xlink" version="1.1" viewBox="0 0 256 256">
  <g transform="matrix(1 0 0 -1 0 204)">
   <path fill="currentColor"
d="M139 177q3 5 7 2q1 -1 4 -2q3 -2 9 -3q4 -6 -2 -7q-7 0 -12 -2q-8 -3 -31 -9q-7 -1 -15 0q-7 1 -9 3t-2 3q1 1 4 1q6 -3 37 8q7 3 10 6zM113 146q4 -4 9 -5q4 -3 1 -5q-4 -2 -3 -18q32 6 50 6q17 2 32 -1q9 0 30 -20q6 -7 -5 -11q-8 -63 -39 -86q-3 -2 -6 -5q-4 -1 -6 -2
q-31 12 -57 40q1 -12 0 -18q-1 -2 -2 -3q-2 0 -2 2q-5 10 -6 19q-1 4 1 2q2 -1 3 -1q1 1 1 5v17q-15 -14 -27 -32q-2 -3 -4 -1q-3 2 -3 5q-1 2 0 2h3q0 -1 4 2q6 10 26 31q1 13 1 42q-16 -5 -22 -9q-3 -1 -4 -1q-10 -6 -23 -10q-7 -2 -1 2q15 11 28 15q5 1 15 5q4 2 7 3
q-2 20 -3 28q-2 6 2 2zM120 113q0 -6 -1 -17v-22q8 8 15 14q5 4 1 -2q-5 -5 -12 -14q-3 -4 -4 -5v-25q3 -1 7 -5q18 -20 42 -28q10 -5 20 3q28 25 32 79q1 27 -19 30q-27 5 -81 -8zM161 114l2 -2q4 -1 2 -6q-8 -6 -12 -16q-7 -11 -16 -20q27 -15 41 -24q8 -4 9 -10
q-1 -6 -5 -4q-16 17 -47 36l-8 -6q-7 -4 -1 2q19 21 30 39q3 5 3 10q-2 3 2 1zM56 107q-4 -8 -2 -19q1 -6 -1 -8q-3 -7 0 -21q5 -27 18 -41q3 -7 -2 -7q-9 1 -17 9q-3 3 -1 6q2 8 5 9q-21 50 -3 74q2 2 3 1q1 0 0 -3zM81 79l1 1q9 7 18 7q2 -3 2 -5q-7 -4 -7 -8
q-2 -8 -5 -12q-4 -5 -2 1v2q1 5 2 11q0 3 -7 1q-5 -3 -2 2z" />
  </g>

</svg>
