<?xml version="1.0" encoding="UTF-8" standalone="no"?>
<!-- Created with Inkscape (http://www.inkscape.org/) -->

<svg
   xmlns:dc="http://purl.org/dc/elements/1.1/"
   xmlns:cc="http://creativecommons.org/ns#"
   xmlns:rdf="http://www.w3.org/1999/02/22-rdf-syntax-ns#"
   xmlns:svg="http://www.w3.org/2000/svg"
   xmlns="http://www.w3.org/2000/svg"
   xmlns:sodipodi="http://sodipodi.sourceforge.net/DTD/sodipodi-0.dtd"
   xmlns:inkscape="http://www.inkscape.org/namespaces/inkscape"
   width="512"
   height="512"
   viewBox="0 0 512 512"
   version="1.1"
   id="svg856"
   inkscape:version="0.92.4 (5da689c313, 2019-01-14)"
   sodipodi:docname="對.svg">
  <defs
     id="defs850" />
  <sodipodi:namedview
     id="base"
     pagecolor="#ffffff"
     bordercolor="#666666"
     borderopacity="1.0"
     inkscape:pageopacity="0.0"
     inkscape:pageshadow="2"
     inkscape:zoom="1"
     inkscape:cx="203.81066"
     inkscape:cy="303.69116"
     inkscape:document-units="px"
     inkscape:current-layer="layer1"
     showgrid="false"
     units="px"
     inkscape:window-width="1366"
     inkscape:window-height="705"
     inkscape:window-x="-8"
     inkscape:window-y="-8"
     inkscape:window-maximized="1" />
  <metadata
     id="metadata853">
    <rdf:RDF>
      <cc:Work
         rdf:about="">
        <dc:format>image/svg+xml</dc:format>
        <dc:type
           rdf:resource="http://purl.org/dc/dcmitype/StillImage" />
        <dc:title></dc:title>
      </cc:Work>
    </rdf:RDF>
  </metadata>
  <g
     inkscape:label="圖層 1"
     inkscape:groupmode="layer"
     id="layer1"
     transform="translate(0,-161.53331)">
    <path
       style="fill:#000000;stroke:none;stroke-width:1px;stroke-linecap:butt;stroke-linejoin:miter;stroke-opacity:1;fill-opacity:1"
       d="M 148,268.53331 C 144.03506,271.57949 146.36567,278.80796 148,283.53331 149.93989,289.14215 156.00852,292.40757 159,297.53331 162.08898,302.82611 164.36689,308.62666 166,314.53331 167.79647,321.03078 167.13281,328.05581 169,334.53331 170.61242,340.12697 171.36616,347.00961 176,350.53331 179.75237,353.38672 186.70564,355.90517 190,352.53331 192.83391,349.63273 188.97751,344.46891 188,340.53331 186.47545,334.39525 183.01308,328.7762 182,322.53331 180.93212,315.95273 182,309.19998 182,302.53331 182,298.86664 183.14078,295.018 182,291.53331 180.07093,285.64068 175.73891,280.53171 171,276.53331 168.72131,274.61069 165.78807,273.58952 163,272.53331 158.16088,270.7001 152.1035,265.38068 148,268.53331 Z"
       id="path1412"
       inkscape:connector-curvature="0"
       sodipodi:nodetypes="aaaaaaaaaaaaaa" />
    <path
       style="fill:#000000;stroke:none;stroke-width:1px;stroke-linecap:butt;stroke-linejoin:miter;stroke-opacity:1;fill-opacity:1"
       d="M 193,241.53331 C 196.09376,249.35676 204.56206,254.48134 207,262.53331 208.7387,268.27586 207.30649,274.54114 207,280.53331 206.33246,293.58445 204.25826,306.52583 203,319.53331 201.93651,330.52735 189.99744,347.84836 200,352.53331 204.69589,354.73275 208.24526,345.92652 211,341.53331 215.31221,334.65626 216.29538,326.18667 219,318.53331 223.60219,305.51035 229.45369,292.88252 233,279.53331 234.47741,273.97198 237.13378,268.17473 236,262.53331 234.9069,257.09429 230.41553,252.90503 227,248.53331 222.2091,242.40119 216.07557,237.43196 211,231.53331 207.12906,227.03464 205.92425,217.88749 200,217.53331 196.70605,217.33638 194.39964,221.54502 193,224.53331 191.43835,227.8675 191.86291,231.85408 192,235.53331 192.0755,237.55949 192.25438,239.6478 193,241.53331 Z"
       id="path1414"
       inkscape:connector-curvature="0"
       sodipodi:nodetypes="aaaaaaaaaaaaaaa" />
    <path
       style="fill:#000000;stroke:none;stroke-width:1px;stroke-linecap:butt;stroke-linejoin:miter;stroke-opacity:1;fill-opacity:1"
       d="M 257,266.53331 C 256.21822,270.67657 260.73801,274.32509 261,278.53331 261.10561,280.2297 260.94577,282.12107 260,283.53331 258.66249,285.53052 255.8221,285.9656 254,287.53331 250.24364,290.76523 247.21606,294.76336 244,298.53331 239.84433,303.4047 236.52769,309.00562 232,313.53331 227.47231,318.061 213.80278,319.98554 217,325.53331 220.2145,331.11107 229.33674,321.59467 235,318.53331 240.04496,315.80618 244.23282,311.72123 249,308.53331 251.61403,306.78525 254.31829,305.17567 257,303.53331 260.31502,301.50309 263.42463,299.05903 267,297.53331 270.49561,296.04162 275.18045,297.08176 278,294.53331 281.44436,291.42013 283.1185,286.17459 283,281.53331 282.83242,274.96954 280.06524,267.71116 275,263.53331 271.56921,260.70357 266.21494,259.11483 262,260.53331 259.53256,261.36369 257.48271,263.97504 257,266.53331 Z"
       id="path1416"
       inkscape:connector-curvature="0"
       sodipodi:nodetypes="aaaaaaaaaaaaaaaa" />
    <path
       style="fill:#000000;stroke:none;stroke-width:1px;stroke-linecap:butt;stroke-linejoin:miter;stroke-opacity:1;fill-opacity:1"
       d="M 97,310.53331 C 103.63016,308.7579 109.08781,317.0466 115,320.53331 120.41739,323.72822 125.41184,327.64748 131,330.53331 134.85024,332.52164 139.17941,333.48859 143,335.53331 145.11928,336.66752 148.5286,337.17629 149,339.53331 149.70711,343.06884 146.17892,346.832 143,348.53331 139.17941,350.57803 134.32243,348.22612 130,348.53331 127.64891,348.7004 125.28644,348.96084 123,349.53331 119.21526,350.48092 115.83497,354.2511 112,353.53331 108.5171,352.88141 106.49273,349.05161 104,346.53331 101.83805,344.34918 99.282901,342.32591 98,339.53331 96.169766,335.54928 96.725546,330.85717 96,326.53331 95.383268,322.85791 93.331759,319.19969 94,315.53331 94.348512,313.62116 95.122497,311.03606 97,310.53331 Z"
       id="path1418"
       inkscape:connector-curvature="0"
       sodipodi:nodetypes="aaaaaaaaaaaaaa" />
    <path
       style="fill:#000000;stroke:none;stroke-width:1px;stroke-linecap:butt;stroke-linejoin:miter;stroke-opacity:1;fill-opacity:1"
       d="M 31,373.53331 C 34.535534,371.41199 39.010863,375.49082 43,376.53331 46.677096,377.49425 50.221619,379.12309 54,379.53331 60.635998,380.25378 67.397454,379.5141 74,378.53331 80.797257,377.5236 87.50252,375.77049 94,373.53331 100.20821,371.39573 105.77863,367.63229 112,365.53331 124.33402,361.37202 137.32475,359.49683 150,356.53331 158.66087,354.50837 167.3589,352.64101 176,350.53331 187.7031,347.67874 199.24635,344.17201 211,341.53331 219.61113,339.6001 228.31038,338.07582 237,336.53331 251.29849,333.99516 265.478,329.55306 280,329.53331 288.43932,329.52183 297.56866,329.53363 305,333.53331 309.77816,336.105 316.59063,340.13928 316,345.53331 315.55712,349.57799 310.001,351.79336 306,352.53331 299.24274,353.783 292.83523,348.24169 286,347.53331 277.37313,346.63925 268.64436,347.82811 260,348.53331 249.28592,349.40735 238.60204,350.75784 228,352.53331 215.23345,354.67126 202.6551,357.81227 190,360.53331 176.32058,363.47459 162.6111,366.2905 149,369.53331 137.28178,372.32515 125.35999,374.52561 114,378.53331 98.807022,383.89325 84.902128,392.41104 70,398.53331 63.756849,401.09819 57.739157,405.90656 51,405.53331 45.790492,405.24478 40.91144,401.98626 37,398.53331 33.395996,395.35176 30.136533,391.20443 29,386.53331 28.286396,383.60041 29.466087,380.50418 30,377.53331 30.243102,376.18061 29.821489,374.24042 31,373.53331 Z"
       id="path1420"
       inkscape:connector-curvature="0"
       sodipodi:nodetypes="aaaaaaaaaaaaaaaaaaaaaaaaaa" />
    <path
       style="fill:#000000;stroke:none;stroke-width:1px;stroke-linecap:butt;stroke-linejoin:miter;stroke-opacity:1;fill-opacity:1"
       d="M 129,388.53331 C 125.49727,391.1062 127.9086,397.72346 130,401.53331 132.40605,405.91634 137.48531,408.38445 142,410.53331 145.72291,412.3053 149.95848,414.34946 154,413.53331 157.26738,412.87349 159.60645,409.85323 162,407.53331 163.53262,406.04784 166.02134,404.66758 166,402.53331 165.97397,399.93002 163.25851,397.82826 161,396.53331 157.48206,394.51625 152.98873,395.26438 149,394.53331 145.65635,393.92047 142.25842,393.50194 139,392.53331 135.55872,391.51032 131.89342,386.40799 129,388.53331 Z"
       id="path1422"
       inkscape:connector-curvature="0"
       sodipodi:nodetypes="aaaaaaaaaa" />
    <path
       style="fill:#000000;stroke:none;stroke-width:1px;stroke-linecap:butt;stroke-linejoin:miter;stroke-opacity:1;fill-opacity:1"
       d="M 224,360.53331 C 218.33322,364.69648 216.78431,372.6068 213,378.53331 210.41275,382.58513 208.14452,386.89695 205,390.53331 202.06666,393.92545 197.63516,395.90467 195,399.53331 193.0709,402.18969 191.48065,405.28573 191,408.53331 190.60654,411.19177 189.43352,415.73619 192,416.53331 195.83323,417.72387 197.08908,410.29694 200,407.53331 204.64365,403.12463 209.79137,399.25758 215,395.53331 218.53537,393.00545 222.2654,390.7563 226,388.53331 228.94898,386.77795 232.06986,385.31994 235,383.53331 239.10457,381.03059 244.4726,379.62273 247,375.53331 248.41286,373.24725 249.17622,369.94966 248,367.53331 246.29863,364.03811 241.40763,363.40391 238,361.53331 236.03985,360.45729 234.22272,358.7773 232,358.53331 229.26768,358.23338 226.21519,358.90589 224,360.53331 Z"
       id="path1424"
       inkscape:connector-curvature="0"
       sodipodi:nodetypes="aaaaaaaaaaaaaaa" />
    <path
       style="fill:#000000;stroke:none;stroke-width:1px;stroke-linecap:butt;stroke-linejoin:miter;stroke-opacity:1;fill-opacity:1"
       d="M 110,426.53331 C 112.89392,424.68858 115.9645,429.93221 119,431.53331 121.63707,432.92426 124.06138,435.02995 127,435.53331 132.29768,436.44076 137.7056,434.45968 143,433.53331 153.43497,431.70748 163.69406,428.98479 174,426.53331 187.37062,423.35284 201.11,421.30163 214,416.53331 218.89341,414.72312 223.33333,411.86664 228,409.53331 232,407.53331 235.59483,404.30432 240,403.53331 245.62031,402.54962 252.20788,402.43635 257,405.53331 258.63242,406.58828 259.71393,408.61083 260,410.53331 260.40457,413.25211 259.88357,416.53139 258,418.53331 253.44882,423.37045 245.5641,423.5215 239,424.53331 234.71725,425.19347 230.31224,424.10631 226,424.53331 217.54299,425.37072 209.21367,427.35205 201,429.53331 194.88732,431.15662 188.9117,433.28569 183,435.53331 175.88137,438.23981 169.21725,442.10199 162,444.53331 156.7902,446.28836 151.40763,447.54346 146,448.53331 140.38751,449.56067 134.40016,448.69107 129,450.53331 125.32089,451.78842 122.73228,457.62015 119,456.53331 113.27495,454.86617 112.57598,446.28412 111,440.53331 109.76346,436.02112 106.05483,429.04816 110,426.53331 Z"
       id="path1426"
       inkscape:connector-curvature="0"
       sodipodi:nodetypes="aaaaaaaaaaaaaaaaaaaaa" />
    <path
       style="fill:#000000;stroke:none;stroke-width:1px;stroke-linecap:butt;stroke-linejoin:miter;stroke-opacity:1;fill-opacity:1"
       d="M 162,444.53331 V 444.53331 C 162,444.53331 170.45355,455.84604 172,462.53331 173.42892,468.71234 171.02896,475.19128 171,481.53331 170.96496,489.20714 172.24278,496.86324 172,504.53331 171.70303,513.91536 167.33376,523.29563 169,532.53331 169.52923,535.46739 171.39315,538.02195 173,540.53331 175.30066,544.12903 176.75055,550.93879 181,550.53331 188.12461,549.85348 189.41707,538.51303 191,531.53331 192.91825,523.07503 190.38323,514.19791 190,505.53331 189.70506,498.86483 189.16672,492.20622 189,485.53331 188.79186,477.20258 187.89389,468.79291 189,460.53331 189.50446,456.76635 193.08296,453.17634 192,449.53331 190.85626,445.68585 183,441.53331 183,441.53331 183,441.53331 179.39682,437.71507 177,437.53331 171.49815,437.11609 162,444.53331 162,444.53331 Z"
       id="path1428"
       inkscape:connector-curvature="0"
       sodipodi:nodetypes="caaaaaaaaaaaacac" />
    <path
       style="fill:#000000;stroke:none;stroke-width:1px;stroke-linecap:butt;stroke-linejoin:miter;stroke-opacity:1;fill-opacity:1"
       d="M 124,481.53331 134,487.53331 141,488.53331 161,485.53331 201,473.53331 210,467.53331 231,473.53331 224,487.53331 208,493.53331 195,497.53331 152,511.53331 129,512.53331 121,502.53331 Z"
       id="path1430"
       inkscape:connector-curvature="0" />
    <path
       style="fill:#000000;stroke:none;stroke-width:1px;stroke-linecap:butt;stroke-linejoin:miter;stroke-opacity:1;fill-opacity:1"
       d="M 96,551.53331 C 99.784977,547.71718 106.63043,553.77129 112,553.53331 124.60595,552.97461 136.67794,548.25161 149,545.53331 162.34578,542.58918 175.68835,539.6281 189,536.53331 197.34735,534.59265 205.57711,532.11424 214,530.53331 221.27418,529.16798 228.60425,527.81734 236,527.53331 241.67228,527.31547 247.64755,526.64294 253,528.53331 255.70377,529.48822 259.00927,530.84246 260,533.53331 260.47486,534.82304 259.88716,536.48363 259,537.53331 255.24226,541.97946 248.63164,543.05903 243,544.53331 239.75925,545.38169 236.33839,545.25519 233,545.53331 228.0062,545.94935 222.97469,545.93033 218,546.53331 212.28758,547.2257 206.60993,548.25276 201,549.53331 190.19735,551.99918 179.47403,554.91773 169,558.53331 163.20716,560.53296 157.63838,563.13243 152,565.53331 143.62345,569.10013 135.55149,573.40907 127,576.53331 121.45199,578.56025 115.63407,583.30706 110,581.53331 103.8924,579.61048 100.51498,572.42185 98,566.53331 96.01875,561.89444 92.447825,555.11472 96,551.53331 Z"
       id="path1432"
       inkscape:connector-curvature="0"
       sodipodi:nodetypes="aaaaaaaaaaaaaaaaaaa" />
    <path
       style="fill:#000000;stroke:none;stroke-width:1px;stroke-linecap:butt;stroke-linejoin:miter;stroke-opacity:1;fill-opacity:1"
       d="M 274,453.53331 C 271.5963,457.13886 277.98772,461.31987 279,465.53331 280.01527,469.7592 278.58185,474.42506 280,478.53331 281.17649,481.94152 283.82281,484.65932 286,487.53331 289.71144,492.43259 291.88636,500.8999 298,501.53331 303.43797,502.09671 307.34043,495.59489 311,491.53331 314.4059,487.75326 318.94001,483.62107 319,478.53331 319.0546,473.90282 315.32118,469.76042 312,466.53331 309.00454,463.62269 304.67206,462.52339 301,460.53331 296.67299,458.18827 292.77227,454.73648 288,453.53331 283.47493,452.39246 276.5886,449.65041 274,453.53331 Z"
       id="path1434"
       inkscape:connector-curvature="0"
       sodipodi:nodetypes="aaaaaaaaaaa" />
    <path
       style="fill:#000000;stroke:none;stroke-width:1px;stroke-linecap:butt;stroke-linejoin:miter;stroke-opacity:1;fill-opacity:1"
       d="M 285,390.53331 C 291.00333,382.38442 304.3651,384.63383 314,381.53331 321.02392,379.27301 328.01352,376.90683 335,374.53331 343.68376,371.58317 352.39679,368.71072 361,365.53331 370.40669,362.05915 379.93045,358.81102 389,354.53331 395.2079,351.60532 400.53119,346.82801 407,344.53331 412.42312,342.60955 418.25418,341.84419 424,341.53331 429.00378,341.26258 434.0008,342.18813 439,342.53331 443.66744,342.85558 448.55158,342.08402 453,343.53331 455.98998,344.50744 459.30761,345.8829 461,348.53331 462.44631,350.79835 462.75608,353.95444 462,356.53331 461.26755,359.03157 459.40148,361.52799 457,362.53331 453.29747,364.08328 449.00104,361.8539 445,361.53331 440.66775,361.18618 436.34093,360.32065 432,360.53331 426.25267,360.81487 420.60993,362.25276 415,363.53331 404.19735,365.99918 393.28158,368.40211 383,372.53331 377.74191,374.64604 373.17934,378.23428 368,380.53331 359.90479,384.12665 351.06411,385.87073 343,389.53331 333.62592,393.79086 324.58887,398.85605 316,404.53331 312.82946,406.62905 310.79264,411.28774 307,411.53331 300.43938,411.95811 294.84992,405.97183 290,401.53331 287.88468,399.59743 285.87508,397.26396 285,394.53331 284.5931,393.26358 284.20916,391.60679 285,390.53331 Z"
       id="path1436"
       inkscape:connector-curvature="0"
       sodipodi:nodetypes="aaaaaaaaaaaaaaaaaaaaaaa" />
    <path
       style="fill:#000000;stroke:none;stroke-width:1px;stroke-linecap:butt;stroke-linejoin:miter;stroke-opacity:1;fill-opacity:1"
       d="M 339,243.53331 C 333.86213,247.23648 337.21527,256.45665 339,262.53331 340.56336,267.85625 344.2212,272.47148 348,276.53331 350.27046,278.97383 353.67054,280.14904 356,282.53331 358.00388,284.58433 360.12492,286.80266 361,289.53331 363.03452,295.88195 361.10748,302.86751 361,309.53331 360.83331,319.87067 359.97533,330.19463 360,340.53331 360.04299,358.5456 361.28377,376.53521 362,394.53331 362.62352,410.20175 363.66659,425.85601 364,441.53331 364.35437,458.19621 363.82996,474.86751 364,491.53331 364.16668,507.86919 365.14733,524.19724 365,540.53331 364.92178,549.20603 371.70101,562.54374 364,566.53331 356.93992,570.19084 350.78792,557.67413 344,553.53331 339.41154,550.73422 334.81131,547.92918 330,545.53331 327.72757,544.40172 324.90944,540.86044 323,542.53331 316.4909,548.23598 327.3283,559.30221 330,567.53331 332.96302,576.66193 336.55084,585.57706 340,594.53331 342.58044,601.23382 344.35086,608.34951 348,614.53331 352.81545,622.69353 358.59891,630.61709 366,636.53331 370.07543,639.79109 375.03334,645.13158 380,643.53331 386.8129,641.34091 388.4032,631.50988 390,624.53331 392.15802,615.10471 390.00961,605.15289 389,595.53331 387.79875,584.08772 384.53426,572.93903 383,561.53331 381.08089,547.26659 379.8056,532.90597 379,518.53331 378.02979,501.22394 378.7161,483.85505 378,466.53331 377.13083,445.50898 374.667,424.56502 374,403.53331 373.74641,395.53733 373.65808,387.526 374,379.53331 374.50046,367.83456 375.03912,356.0774 377,344.53331 379.24742,331.30228 382.45588,318.16114 387,305.53331 389.12054,299.64047 394.98993,294.79607 395,288.53331 395.01774,277.49803 388.60455,266.5301 381,258.53331 376.58156,253.88697 370.13801,251.38694 364,249.53331 360.79309,248.56485 357.27587,249.23397 354,248.53331 348.84611,247.43097 343.27562,240.45162 339,243.53331 Z"
       id="path1438"
       inkscape:connector-curvature="0"
       sodipodi:nodetypes="aaaaaaaaaaaaaaaaaaaaaaaaaaaaaaaaaa" />
  </g>
</svg>
