<?xml version="1.0" encoding="UTF-8" standalone="no"?>
<!-- Created with Inkscape (http://www.inkscape.org/) -->

<svg
   xmlns:dc="http://purl.org/dc/elements/1.1/"
   xmlns:cc="http://creativecommons.org/ns#"
   xmlns:rdf="http://www.w3.org/1999/02/22-rdf-syntax-ns#"
   xmlns:svg="http://www.w3.org/2000/svg"
   xmlns="http://www.w3.org/2000/svg"
   xmlns:sodipodi="http://sodipodi.sourceforge.net/DTD/sodipodi-0.dtd"
   xmlns:inkscape="http://www.inkscape.org/namespaces/inkscape"
   width="512"
   height="512"
   viewBox="0 0 512 512"
   version="1.1"
   id="svg8"
   inkscape:version="0.92.4 (5da689c313, 2019-01-14)"
   sodipodi:docname="帳.svg">
  <defs
     id="defs2" />
  <sodipodi:namedview
     id="base"
     pagecolor="#ffffff"
     bordercolor="#666666"
     borderopacity="1.0"
     inkscape:pageopacity="0.0"
     inkscape:pageshadow="2"
     inkscape:zoom="1.07"
     inkscape:cx="224.86322"
     inkscape:cy="226.10034"
     inkscape:document-units="px"
     inkscape:current-layer="layer1"
     showgrid="false"
     units="px"
     inkscape:window-width="1366"
     inkscape:window-height="705"
     inkscape:window-x="-8"
     inkscape:window-y="-8"
     inkscape:window-maximized="1" />
  <metadata
     id="metadata5">
    <rdf:RDF>
      <cc:Work
         rdf:about="">
        <dc:format>image/svg+xml</dc:format>
        <dc:type
           rdf:resource="http://purl.org/dc/dcmitype/StillImage" />
        <dc:title></dc:title>
      </cc:Work>
    </rdf:RDF>
  </metadata>
  <g
     inkscape:label="圖層 1"
     inkscape:groupmode="layer"
     id="layer1"
     transform="translate(0,-161.53331)">
    <path
       style="fill:#000000;stroke:none;stroke-width:1px;stroke-linecap:butt;stroke-linejoin:miter;stroke-opacity:1;fill-opacity:1"
       d="M 74.340426,249.87374 C 72.099747,251.49046 70.887691,254.84032 71.276596,257.57586 71.845683,261.57879 76.335952,263.8873 78.723404,267.15033 82.789089,272.70706 87.847885,277.78703 90.425532,284.17161 93.655613,292.1722 93.673651,301.13448 94.680851,309.70352 95.884178,319.94116 96.561005,330.24944 96.808511,340.55459 97.217294,357.57465 95.755109,374.59345 95.744681,391.61842 95.733602,409.707 96.969315,427.78587 96.808511,445.87374 96.565606,473.19672 95.180002,500.5023 93.744681,527.78863 92.885847,544.11559 92.824482,560.55222 90.425532,576.7248 89.037157,586.08456 86.981693,595.39025 84.042553,604.38437 83.203683,606.95141 82.88238,610.05153 80.851064,611.83118 78.635199,613.77252 75.26545,613.86334 72.340426,614.21416 69.874372,614.50993 66.933111,612.54132 64.893617,613.95884 62.131191,615.87883 61.370635,620.18556 61.702128,623.53331 62.265558,629.2234 67.259354,633.53082 70.212766,638.42693 72.001349,641.39201 72.326225,647.08266 75.787234,647.19288 84.6658,647.47564 87.419535,633.55688 91.489362,625.66097 94.571948,619.68042 96.4651,613.09147 97.87234,606.51203 99.363099,599.5421 99.284831,592.32704 100,585.23544 102.11011,564.31168 105.31778,543.47238 106.38298,522.46948 106.93979,511.49068 106.14417,500.48107 106.38298,489.49076 106.91502,465.00534 108.53141,440.55548 109.57447,416.0865 110.25468,400.12962 111.24106,384.18205 111.57447,368.21416 111.87798,353.67832 109.89767,339.03913 111.57447,324.59714 112.66687,315.18851 116.4102,306.26014 118.08511,296.93757 119.09621,291.30976 121.10192,285.56465 120.21277,279.91629 119.3,274.11785 116.0367,268.83298 112.76596,263.95884 109.27019,258.74935 105.62706,252.9031 100,250.12905 96.486907,248.39715 92.21414,249.12945 88.297872,249.06522 83.638217,248.9888 78.119662,247.14691 74.340426,249.87374 Z"
       id="path826"
       inkscape:connector-curvature="0"
       sodipodi:nodetypes="aaaaaaaaaaaaaaaaaaaaaaaaaaaaaaa" />
    <path
       style="fill:#000000;stroke:none;stroke-width:1px;stroke-linecap:butt;stroke-linejoin:miter;stroke-opacity:1;fill-opacity:1"
       d="M 32.978723,374.59714 C 25.982561,379.49486 35.092244,391.58893 35.106383,400.12905 35.121108,409.02261 33.333616,417.83831 32.978723,426.7248 32.724014,433.1027 34.617031,439.70459 32.978723,445.87374 32.24492,448.63692 29.139822,450.49207 28.723404,453.32054 28.034303,458.00117 29.872452,462.88282 31.914894,467.15033 34.640539,472.84533 37.420401,480.83395 43.617021,482.04395 46.422984,482.59186 49.146783,479.90961 51.06383,477.78863 53.405695,475.19764 54.594135,471.63058 55.319149,468.21416 55.908061,465.43908 55.598688,462.52659 55.319149,459.70352 55.140977,457.90416 54.271178,456.19246 54.255319,454.38437 54.185772,446.45536 57.552458,438.85133 58.510638,430.98012 59.197594,425.33695 59.654738,419.6431 59.574468,413.95884 59.519163,410.04244 58.688125,406.16948 58.510638,402.25671 58.33388,398.36001 59.744149,394.25513 58.510638,390.55459 57.949951,388.87253 56.624961,387.49867 55.319149,386.29927 52.855348,384.03625 49.751543,382.57077 46.808511,380.98012 42.341912,378.56602 37.138048,371.68537 32.978723,374.59714 Z"
       id="path828"
       inkscape:connector-curvature="0"
       sodipodi:nodetypes="aaaaaaaaaaaaaaaaaa" />
    <path
       style="fill:#000000;stroke:none;stroke-width:1px;stroke-linecap:butt;stroke-linejoin:miter;stroke-opacity:1;fill-opacity:1"
       d="M 60.638298,357.57586 C 63.078892,353.0259 70.648008,354.99567 75.531915,353.32054 93.971525,346.99594 113.16052,341.66781 129.78723,331.49076 131.3908,330.50923 132.30305,328.50205 134.04255,327.78863 139.30222,325.6315 145.64336,325.01139 151.06383,326.7248 153.22885,327.40916 154.5501,329.63989 156.38298,330.98012 159.47922,333.24415 162.28634,336.25158 165.95745,337.3631 167.99382,337.97966 170.4661,336.35622 172.34043,337.3631 175.66746,339.15037 178.33995,343.04188 178.59574,346.80991 178.86558,350.78486 174.29181,353.69188 173.40426,357.57586 172.1403,363.10704 173.82625,368.93909 173.40426,374.59714 172.87087,381.74882 170.59715,388.7125 170.21277,395.87374 169.75622,404.37952 172.20729,412.93863 171.2766,421.40565 170.67511,426.87772 168.03732,431.95265 167.02128,437.3631 166.42862,440.51906 166.01185,443.7269 165.95745,446.93757 165.87912,451.56045 169.46453,456.84209 167.02128,460.76735 166.01216,462.38858 163.57112,463.28692 161.70213,462.89501 158.23682,462.16837 156.55104,458.0161 154.25532,455.32054 151.15029,451.67472 148.53643,447.63702 145.74468,443.74608 143.22127,440.22913 140.84664,436.60639 138.29787,433.10778 136.9565,431.26653 134.01438,429.93368 134.17021,427.66097 134.33762,425.21941 137.01942,423.17867 139.3617,422.46948 141.09228,421.9455 142.88869,423.77331 144.68085,423.53331 145.46677,423.42806 146.35745,423.12162 146.80851,422.46948 152.68967,413.96667 149.22191,401.92766 150,391.61842 150.56109,384.18432 151.29891,376.72953 151.06383,369.27799 150.96258,366.06846 151.66944,362.44657 150,359.70352 148.67057,357.51914 146.06443,356.18922 143.61702,355.4482 141.58065,354.83164 139.34803,355.20744 137.23404,355.4482 132.53334,355.98355 127.85621,357.03866 123.40426,358.63969 119.67351,359.98136 116.2615,362.08808 112.76596,363.95884 105.20395,368.0059 98.307536,373.34298 90.425532,376.7248 87.023238,378.18458 83.47222,380.27326 79.787234,379.91629 74.362405,379.39077 68.817782,376.47833 65.319149,372.29927 62.01333,368.35053 58.204011,362.11406 60.638298,357.57586 Z"
       id="path830"
       inkscape:connector-curvature="0"
       sodipodi:nodetypes="aaaaaaaaaaaaaaaaaaaaaaaaaaaaaaaaaaa" />
    <path
       style="fill:#000000;stroke:none;stroke-width:1px;stroke-linecap:butt;stroke-linejoin:miter;stroke-opacity:1;fill-opacity:1"
       d="M 217.60563,269.30796 C 214.54231,274.04198 216.66157,280.81697 218.30986,286.20937 219.35728,289.63604 221.61642,292.63976 223.94366,295.3643 225.34929,297.0099 227.28531,298.11918 228.87324,299.58965 230.57828,301.16857 232.04728,302.99665 233.80282,304.51923 235.57619,306.05726 237.13283,308.29413 239.43662,308.74458 248.48909,310.51456 257.49939,304.7729 266.19718,301.70232 273.23189,299.21886 280.24404,296.42109 286.61972,292.54739 294.04522,288.03585 299.91114,281.31401 307.04225,276.35021 313.35323,271.95728 319.74865,267.53424 326.76056,264.37838 336.17192,260.1426 346.30391,257.63839 356.33803,255.22345 361.666,253.94115 367.23594,253.8027 372.53521,252.40655 375.90975,251.51749 379.9768,251.40203 382.39437,248.88542 385.12043,246.04768 387.09126,241.37304 385.91549,237.61782 385.11576,235.06362 381.91005,234.00069 379.57746,232.68824 374.98007,230.10147 370.01907,227.74063 364.78873,227.05444 358.00304,226.1642 350.7673,226.74554 344.3662,229.16711 340.58881,230.59612 337.77869,233.84146 334.50704,236.20937 330.96985,238.76947 327.67027,241.68026 323.94366,243.95584 317.6719,247.78555 310.88677,250.71224 304.22535,253.815 295.64746,257.81041 287.00855,261.70533 278.16901,265.08261 271.92813,267.46703 265.59338,269.63728 259.15493,271.42063 257.06925,271.99833 254.94604,272.44102 252.8169,272.82908 249.55095,273.42434 246.22231,274.84036 242.95775,274.23754 240.58111,273.79868 238.7574,271.84395 236.61972,270.71641 234.29835,269.49198 232.08258,267.97782 229.57746,267.19528 227.99309,266.70036 226.29596,266.2935 224.64789,266.49106 222.13761,266.79198 218.97914,267.18534 217.60563,269.30796 Z"
       id="path832"
       inkscape:connector-curvature="0"
       sodipodi:nodetypes="aaaaaaaaaaaaaaaaaaaaaaaaaaaa" />
    <path
       style="fill:#000000;stroke:none;stroke-width:1px;stroke-linecap:butt;stroke-linejoin:miter;stroke-opacity:1;fill-opacity:1"
       d="M 245.77465,292.54739 C 245.77465,292.54739 241.03239,304.06166 240.84507,310.15303 240.56464,319.27225 245.10484,327.91201 246.59155,336.91359 247.86238,344.6081 248.84431,352.36736 249.29577,360.15303 249.7442,367.88652 249.29577,375.64598 249.29577,383.39246 249.29577,391.13894 250.61062,398.99782 249.29577,406.6319 248.95753,408.59574 247.91353,410.37112 247.29577,412.2657 245.76512,416.96 243.98568,421.61092 243.07042,426.46289 242.46608,429.66661 241.74832,432.98853 242.25352,436.20937 242.7264,439.22415 243.56539,442.55492 245.77465,444.66007 249.02697,447.75912 254.14933,450.53364 258.4507,449.23753 263.35051,447.76109 266.07704,441.79738 267.60563,436.91359 269.78042,429.96521 267.58787,422.33095 266.90141,415.08261 266.47568,410.58737 265.14193,406.20384 264.78873,401.70232 264.16443,393.74555 264.64628,385.73861 264.78873,377.75866 264.90612,371.18275 265.79477,364.61038 265.49296,358.04035 265.06941,348.82021 262.62127,339.78254 261.97183,330.57556 261.3276,321.44251 265.97791,311.15508 261.60563,303.11077 258.57614,297.53698 245.77465,292.54739 245.77465,292.54739 V 292.54739"
       id="path834"
       inkscape:connector-curvature="0"
       sodipodi:nodetypes="caaaaaaaaaaaaaaaaaac" />
    <path
       style="fill:#000000;stroke:none;stroke-width:1px;stroke-linecap:butt;stroke-linejoin:miter;stroke-opacity:1;fill-opacity:1"
       d="M 270.42254,331.27979 C 273.10053,326.83919 280.86328,331.04 285.91549,329.87134 291.05495,328.68249 295.7132,325.94547 300.70423,324.23754 306.04382,322.41033 311.42012,320.65162 316.90141,319.30796 320.61284,318.39816 324.35658,316.93486 328.16901,317.19528 331.13138,317.39763 335.42548,317.29365 336.61972,320.01218 337.77428,322.64039 334.49267,325.36194 333.09859,327.87134 331.05861,331.54341 329.16239,335.49396 326.05634,338.32204 321.70663,342.28249 315.52847,343.6179 310.56338,346.77275 306.87798,349.11448 304.06827,352.93332 300,354.51923 296.03897,356.06333 291.30671,357.41481 287.32394,355.92768 283.43331,354.47495 281.47839,350.00704 278.87324,346.77275 277.0758,344.54123 275.32433,342.24131 273.94366,339.73049 272.47324,337.05647 268.84659,333.89301 270.42254,331.27979 Z"
       id="path838"
       inkscape:connector-curvature="0"
       sodipodi:nodetypes="aaaaaaaaaaaaaa" />
    <path
       style="fill:#000000;stroke:none;stroke-width:1px;stroke-linecap:butt;stroke-linejoin:miter;stroke-opacity:1;fill-opacity:1"
       d="M 259.85915,396.06852 C 261.95887,390.79829 271.28719,395.56063 276.76056,394.06852 282.94633,392.3822 288.47248,388.84622 294.3662,386.32204 299.97659,383.9192 305.58129,381.49696 311.26761,379.27979 316.38735,377.28353 321.26545,373.66996 326.76056,373.64599 332.27834,373.62192 339.83667,374.26323 342.3662,379.16711 343.93306,382.2047 341.34508,386.11815 339.5493,389.02627 337.1785,392.8656 333.29353,395.62151 329.57746,398.1812 324.82246,401.45652 319.09084,403.05117 314.08451,405.92768 310.67927,407.88425 307.56929,410.31879 304.22535,412.37838 300.29937,414.79646 296.84541,418.88968 292.25352,419.30796 288.77822,419.62453 285.55556,417.26493 282.39437,415.78683 278.20036,413.82581 273.952,411.74095 270.42254,408.74458 266.22959,405.18493 257.82343,401.1781 259.85915,396.06852 Z"
       id="path840"
       inkscape:connector-curvature="0"
       sodipodi:nodetypes="aaaaaaaaaaaaaa" />
    <path
       style="fill:#000000;stroke:none;stroke-width:1px;stroke-linecap:butt;stroke-linejoin:miter;stroke-opacity:1;fill-opacity:1"
       d="M 147.1831,476.35021 155.6338,471.42063 163.38028,465.08261 175.35211,467.19528 188.02817,464.37838 203.52113,457.33613 217.60563,455.92768 245.77465,446.77275 261.97183,439.02627 277.46479,443.95585 292.95775,439.73049 329.57746,428.46289 359.85915,425.64599 386.61972,422.12486 400,420.01218 409.85915,411.56148 421.12676,414.37838 438.73239,417.89951 454.22535,424.23754 450.70423,436.20937 439.43662,441.13894 425.35211,438.32204 407.74648,434.09669 380.98592,436.91359 359.85915,439.02627 324.64789,441.13894 302.11268,446.06852 276.05634,453.11077 259.15493,455.92768 235.91549,462.96993 199.29577,473.53331 183.09859,484.80092 170.42254,494.66007 151.40845,486.91359 Z"
       id="path842"
       inkscape:connector-curvature="0" />
    <path
       style="fill:#000000;stroke:none;stroke-width:1px;stroke-linecap:butt;stroke-linejoin:miter;stroke-opacity:1;fill-opacity:1"
       d="M 220.42254,474.23754 C 218.55306,476.66089 221.31124,480.33737 221.12676,483.39246 220.83817,488.17157 218.99311,492.73816 218.30986,497.47697 217.87264,500.50938 217.89037,503.59402 217.49296,506.6319 216.62774,513.24579 214.87552,519.72703 214.08451,526.35021 213.24754,533.35829 213.75101,540.50143 212.67606,547.47697 211.16724,557.26794 208.00886,566.73258 205.6338,576.35021 204.24154,581.98804 203.03207,587.67602 201.40845,593.25162 200.16319,597.52791 196.29279,601.56366 197.1831,605.92768 198.81196,613.91184 207.65755,618.43665 213.38028,624.23754 218.28186,629.20606 222.36343,635.8053 228.87324,638.32204 232.81432,639.84569 237.64558,639.93901 241.5493,638.32204 247.06999,636.0353 249.89747,629.76626 254.22535,625.64599 261.56757,618.65598 270.4111,613.12616 276.76056,605.22345 279.1313,602.27276 280.54906,598.66911 282.39437,595.3643 285.26226,590.22812 292.25323,585.58293 290.84507,579.87134 290.43987,578.22781 288.29383,576.80394 286.61972,577.05444 283.32015,577.54817 282.85011,582.67156 280.28169,584.80092 275.75302,588.55542 270.1232,590.77199 264.78873,593.25162 260.67756,595.16262 256.20473,596.22959 252.11268,598.1812 248.69624,599.81059 245.98261,603.16629 242.25352,603.815 238.26121,604.5095 233.19228,604.52179 230.28169,601.70232 228.24208,599.72656 229.43119,596.0589 228.53521,593.3643 227.21504,589.39398 223.89801,586.1159 223.23944,581.98401 221.37878,570.31007 226.32364,558.53883 227.46479,546.77275 228.0783,540.44704 227.9077,534.04028 228.87324,527.75866 230.11889,519.65466 231.48146,511.43552 234.50704,503.815 236.40878,499.02508 241.44847,495.52509 242.25352,490.43472 242.77854,487.11499 242.04911,483.34229 240.14085,480.57556 237.44216,476.66281 232.83003,473.76046 228.16901,472.82908 225.5954,472.31481 222.02561,472.15953 220.42254,474.23754 Z"
       id="path844"
       inkscape:connector-curvature="0"
       sodipodi:nodetypes="aaaaaaaaaaaaaaaaaaaaaaaaaaaaaaa" />
    <path
       style="fill:#000000;stroke:none;stroke-width:1px;stroke-linecap:butt;stroke-linejoin:miter;stroke-opacity:1;fill-opacity:1"
       d="M 356.33803,432.68824 C 347.5691,431.93874 338.56661,437.54129 332.39437,443.815 325.51092,450.81162 325.92709,462.59025 320.42254,470.71641 313.44011,481.02429 303.57119,489.09396 294.3662,497.47697 287.45441,503.77155 279.90037,509.32509 272.53521,515.08261 264.87862,521.06795 257.74849,527.89249 249.29577,532.68824 237.84588,539.18447 209.16153,534.7904 212.67606,547.47697 214.57561,554.33386 222.61373,550.13585 231.28048,546.58871 237.2729,544.13612 243.56586,543.03855 248.33803,541.84317 263.61049,538.01756 279.67937,534.81 292.95775,526.35021 302.33812,520.37388 308.72738,510.6473 316.19718,502.40655 324.25135,493.52111 331.6481,484.06095 339.43662,474.94176 345.27378,468.10732 351.92731,461.90972 357.04225,454.51923 360.39001,449.68212 366.85097,444.74999 365.49296,439.02627 364.63613,435.41493 360.03614,433.00432 356.33803,432.68824 Z"
       id="path846"
       inkscape:connector-curvature="0"
       sodipodi:nodetypes="aaaaaasssaaaaaa" />
    <path
       style="fill:#000000;stroke:none;stroke-width:1px;stroke-linecap:butt;stroke-linejoin:miter;stroke-opacity:1;fill-opacity:1"
       d="M 305.6338,477.05444 C 306.94576,471.85416 315.30091,469.12484 320.42254,470.71641 325.46008,472.28185 325.3846,480.13983 328.87324,484.09669 332.2921,487.97441 336.78086,490.76094 340.84507,493.95585 348.22693,499.75879 355.68372,505.47869 363.38028,510.85725 372.55986,517.27218 381.85923,523.55296 391.5493,529.16711 400.45164,534.32487 409.6926,538.89684 419.01408,543.25162 431.02235,548.86161 443.42279,553.59075 455.6338,558.74458 464.55076,562.50811 473.8168,565.5287 482.39437,570.01218 488.55136,573.23043 500.04397,574.2199 500,581.16711 499.98255,583.9241 495.58434,584.66707 492.95775,585.50514 486.68249,587.5074 479.78455,586.05971 473.23944,586.80092 465.91521,587.63037 458.56206,588.54492 451.40845,590.32204 444.91304,591.93565 439.07839,597.11623 432.39437,596.77275 426.20518,596.45469 420.73629,592.33003 415.49296,589.02627 406.18603,583.16208 398.67926,574.83516 390.14085,567.89951 378.98607,558.83862 366.51174,551.28903 356.33803,541.13894 346.99491,531.81751 339.82037,520.54929 331.69014,510.15303 329.16569,506.92498 326.72111,503.635 324.19718,500.40655 318.07275,492.57256 303.20131,486.69617 305.6338,477.05444 Z"
       id="path848"
       inkscape:connector-curvature="0"
       sodipodi:nodetypes="aaaaaaaaaaaaaaaaaaaa" />
  </g>
</svg>
