<?xml version="1.0" encoding="UTF-8" standalone="no"?>
<!-- Created with Inkscape (http://www.inkscape.org/) -->

<svg
   xmlns:dc="http://purl.org/dc/elements/1.1/"
   xmlns:cc="http://creativecommons.org/ns#"
   xmlns:rdf="http://www.w3.org/1999/02/22-rdf-syntax-ns#"
   xmlns:svg="http://www.w3.org/2000/svg"
   xmlns="http://www.w3.org/2000/svg"
   xmlns:sodipodi="http://sodipodi.sourceforge.net/DTD/sodipodi-0.dtd"
   xmlns:inkscape="http://www.inkscape.org/namespaces/inkscape"
   width="512"
   height="512"
   viewBox="0 0 512 512"
   version="1.1"
   id="svg8"
   inkscape:version="0.92.4 (5da689c313, 2019-01-14)"
   sodipodi:docname="楹.svg">
  <defs
     id="defs2" />
  <sodipodi:namedview
     id="base"
     pagecolor="#ffffff"
     bordercolor="#666666"
     borderopacity="1.0"
     inkscape:pageopacity="0.0"
     inkscape:pageshadow="2"
     inkscape:zoom="1.23"
     inkscape:cx="322.06416"
     inkscape:cy="242.11797"
     inkscape:document-units="px"
     inkscape:current-layer="layer1"
     showgrid="false"
     units="px"
     inkscape:window-width="1366"
     inkscape:window-height="705"
     inkscape:window-x="-8"
     inkscape:window-y="-8"
     inkscape:window-maximized="1" />
  <metadata
     id="metadata5">
    <rdf:RDF>
      <cc:Work
         rdf:about="">
        <dc:format>image/svg+xml</dc:format>
        <dc:type
           rdf:resource="http://purl.org/dc/dcmitype/StillImage" />
        <dc:title></dc:title>
      </cc:Work>
    </rdf:RDF>
  </metadata>
  <g
     inkscape:label="圖層 1"
     inkscape:groupmode="layer"
     id="layer1"
     transform="translate(0,-161.53331)">
    <path
       style="fill:#000000;stroke:none;stroke-width:1px;stroke-linecap:butt;stroke-linejoin:miter;stroke-opacity:1;fill-opacity:1"
       d="M 132.39437,228.46289 C 146.31045,230.04777 154.86373,245.34096 164.78873,255.22345 167.3871,257.81069 170.8974,260.12821 171.83099,263.67416 173.16742,268.75016 170.46557,274.12281 169.01408,279.16711 168.31495,281.59677 167.26314,283.91682 166.19718,286.20936 162.83214,293.44651 157.37385,299.7384 154.92958,307.33613 152.75378,314.09933 153.19973,321.44197 152.11267,328.46289 150.87261,336.472 148.94666,344.37154 147.88732,352.40655 144.37605,379.03941 144.35634,406.05538 140.84507,432.68824 139.78574,440.72325 137.32664,448.55825 136.61972,456.6319 135.4731,469.72734 136.83872,482.9248 136.61972,496.06852 136.38495,510.15889 135.88561,524.24585 135.21127,538.32204 134.85112,545.83981 132.82964,553.39404 133.80282,560.85725 134.76266,568.21812 140.15488,574.59298 140.84507,581.98402 141.81428,592.36309 140.5072,603.2977 136.61972,612.96993 134.23833,618.89494 131.71602,628.98958 125.35211,628.46289 115.93613,627.6836 116.04814,611.9367 112.67606,603.11077 108.85511,593.10997 105.20416,582.78589 104.22535,572.12486 103.70848,566.49521 100.57953,557.75615 105.6338,555.22345 109.59356,553.23921 112.93,564.22652 116.90141,562.2657 125.78175,557.88117 118.89596,542.55781 119.71831,532.68824 121.35977,512.98796 122.58194,493.2549 123.94366,473.53331 124.916,459.45107 125.38309,445.32819 126.76056,431.27979 129.25522,405.83757 133.86861,380.63922 136.61972,355.22345 137.78615,344.44753 138.70922,333.64352 139.43662,322.82908 140.09902,312.98101 140.30247,303.10702 140.84507,293.25162 141.25882,285.73661 144.52198,277.89281 142.25352,270.71641 140.4414,264.98367 136.52786,258.9632 130.98592,256.6319 126.63681,254.80238 121.08208,260.22757 116.90141,258.04035 112.61851,255.79965 110.1649,250.18825 109.85915,245.3643 109.69923,242.84111 110.96416,240.18253 112.67606,238.32204 117.65186,232.91435 125.09299,227.63135 132.39437,228.46289 Z"
       id="path826"
       inkscape:connector-curvature="0"
       sodipodi:nodetypes="aaaaaaaaaaaaaaaaaaaaaaaaaaaaaaaa" />
    <path
       style="fill:#000000;stroke:none;stroke-width:1px;stroke-linecap:butt;stroke-linejoin:miter;stroke-opacity:1;fill-opacity:1"
       d="M 69.014085,387.61782 91.549296,390.43472 174.64789,360.85725 180.28169,366.49106 163.38028,387.61782 140.84507,405.92768 109.85915,422.82908 H 76.056338 L 61.971831,412.96993 60.56338,400.29387 Z"
       id="path828"
       inkscape:connector-curvature="0" />
    <path
       style="fill:#000000;stroke:none;stroke-width:1px;stroke-linecap:butt;stroke-linejoin:miter;stroke-opacity:1;fill-opacity:1"
       d="M 29.577465,542.54739 C 36.215287,552.7914 52.94062,534.78854 63.380282,528.46289 69.652311,524.66251 74.883395,519.34221 80.28169,514.37838 89.55328,505.85298 98.099461,496.56823 106.8169,487.47697 111.65871,482.42753 116.80869,477.62887 121.12676,472.12486 128.74951,462.40855 138.78626,453.20081 141.43662,441.13894 143.77949,430.47646 146.21124,403.69642 136.61972,408.74458 123.76481,415.51032 120.72544,430.67574 115.02386,442.86676 108.85624,456.05426 100.25404,466.44188 91.549296,477.75866 79.996419,492.77821 66.769774,506.46489 53.521127,520.01218 45.857943,527.8481 23.617406,533.34936 29.577465,542.54739 Z"
       id="path830"
       inkscape:connector-curvature="0"
       sodipodi:nodetypes="aaaaaasssaa" />
    <path
       style="fill:#000000;stroke:none;stroke-width:1px;stroke-linecap:butt;stroke-linejoin:miter;stroke-opacity:1;fill-opacity:1"
       d="M 166.19718,472.12486 C 152.86314,469.21728 139.43662,441.13894 139.43662,441.13894 V 441.13894 441.13894 435.13894 C 139.43662,435.13894 157.02531,435.15069 163.97183,439.7305 172.53825,445.37831 183.89332,455.43523 181.09859,465.30796 179.61083,470.56366 171.53399,473.28859 166.19718,472.12486 Z"
       id="path832"
       inkscape:connector-curvature="0"
       sodipodi:nodetypes="aaaccaaa" />
    <path
       style="fill:#000000;stroke:none;stroke-width:1px;stroke-linecap:butt;stroke-linejoin:miter;stroke-opacity:1;fill-opacity:1"
       d="M 225.35211,273.53331 C 231.22496,266.48328 242.94726,279.54997 252.11268,279.98401 255.42871,280.14105 258.76206,279.42295 261.97183,278.57556 275.62753,274.97039 289.01057,269.84782 301.40845,263.08261 313.68354,256.38441 325.32766,248.2093 335.43662,238.54739 340.26857,233.92912 342.41382,226.66535 347.88732,222.82908 350.31884,221.12488 353.37094,219.89823 356.33803,220.01218 366.00955,220.38362 374.86544,226.19142 383.09859,231.27979 386.78057,233.55538 392.79164,235.40525 392.95775,239.73049 393.18707,245.70164 384.47819,248.15254 380.28169,252.40655 375.82833,256.92095 369.98619,260.43867 367.01408,266.04035 363.12239,273.37522 363.04545,282.20108 361.97183,290.43472 360.87747,298.82741 357.09035,308.06848 360.56338,315.78683 366.46045,328.89229 387.57555,329.88186 394.3662,342.54739 397.03752,347.52978 396.79032,353.88745 395.77465,359.4488 393.8128,370.19103 386.83044,379.39187 381.69014,389.02627 373.46554,404.44154 364.86088,419.72158 354.92958,434.09669 346.66183,446.0639 338.10353,458.02521 327.71831,468.20937 320.67463,475.11668 313.22174,490.25775 304.22535,486.20937 298.21623,483.50526 301.35368,472.91607 302.8169,466.49106 303.65739,462.80046 305.95734,459.47973 308.4507,456.6319 313.8964,450.41203 322.4372,447.54688 328.16901,441.58965 336.65448,432.77047 342.48753,421.73149 349.29577,411.56148 356.1063,401.38804 363.43011,391.47057 369.01408,380.57556 372.47355,373.82572 376.77133,367.00177 377.46479,359.4488 377.90253,354.68104 377.61208,349.12418 374.64789,345.3643 371.76599,341.7088 365.98958,341.85583 361.97183,339.50514 354.47242,335.11741 345.3779,331.65015 340.84507,324.23754 337.62357,318.96936 338.26239,312.09833 338.02817,305.92768 337.79599,299.81077 338.65333,293.68882 339.43662,287.61782 340.10828,282.41198 341.78213,277.35264 342.25352,272.12486 342.42892,270.1797 343.96174,267.21248 342.25352,266.2657 334.50576,261.97152 327.39473,275.92978 319.71831,280.35021 309.13345,286.44545 298.43344,292.40052 287.32394,297.47697 279.07691,301.24542 271.03818,307.20979 261.97183,307.33613 254.99313,307.43337 247.93575,304.34652 242.25352,300.29387 237.35861,296.80275 234.11044,291.34604 230.98592,286.20937 228.58296,282.25892 222.39262,277.08601 225.35211,273.53331 Z"
       id="path834"
       inkscape:connector-curvature="0"
       sodipodi:nodetypes="aaaaaaaaaaaaaaaaaaaaaaaaaaaaaaaaaaaaaa" />
    <path
       style="fill:#000000;stroke:none;stroke-width:1px;stroke-linecap:butt;stroke-linejoin:miter;stroke-opacity:1;fill-opacity:1"
       d="M 267.97183,307.33613 C 276.80207,304.72085 286.18512,317.91573 287.32394,327.05444 288.13047,333.52665 280.8281,338.36763 277.46479,343.95585 269.20153,357.68545 260.93611,371.42443 252.11268,384.80092 245.80169,394.3685 240.70737,405.07935 232.39437,412.96993 225.96957,419.06826 217.75506,431.06971 209.85915,427.05444 203.98547,424.06753 205.31354,413.13095 208.4507,407.33613 210.75191,403.08543 217.52107,403.51303 221.12676,400.29387 230.16476,392.22475 235.90641,381.0368 242.25352,370.71641 248.08404,361.236 251.15387,350.10614 257.74648,341.13894 258.92632,339.53413 261.02955,338.66846 261.97183,336.91359 266.73088,328.0505 258.32603,310.19296 267.97183,307.33613 Z"
       id="path836"
       inkscape:connector-curvature="0"
       sodipodi:nodetypes="aaaaaaaaaaaa" />
    <path
       style="fill:#000000;stroke:none;stroke-width:1px;stroke-linecap:butt;stroke-linejoin:miter;stroke-opacity:1;fill-opacity:1"
       d="M 312.4507,327.64599 C 319.75464,327.47707 323.40796,338.32183 325.35211,345.3643 326.73204,350.36294 325.66053,355.9641 323.94366,360.85725 320.96209,369.35483 314.22213,376.02581 309.04225,383.39246 303.29248,391.56959 297.23622,399.53046 291.09859,407.42063 278.87943,423.12885 268.7549,441.00922 253.52113,453.815 244.53779,461.36656 233.77271,474.99874 222.76056,470.94176 217.51369,469.00876 216.22342,460.7738 216.90141,455.22345 217.59109,449.57738 220.95972,440.01304 226.53521,441.13894 231.5045,442.14243 224.81792,454.2946 229.57746,456.04035 238.54857,459.33086 245.13496,444.85042 252.11268,438.32204 261.33729,429.69147 269.85966,420.23977 277.46479,410.15303 290.73983,392.54626 290.41277,393.27336 312.56227,354.07995 315.01769,349.7351 306.9184,349.87377 305.6338,346.77275 304.55535,344.16938 304.63451,341.03158 305.40845,338.32204 306.57934,334.22282 308.18867,327.74456 312.4507,327.64599 Z"
       id="path838"
       inkscape:connector-curvature="0"
       sodipodi:nodetypes="aaaaaaaaaaaasaaa" />
    <path
       style="fill:#000000;stroke:none;stroke-width:1px;stroke-linecap:butt;stroke-linejoin:miter;stroke-opacity:1;fill-opacity:1"
       d="M 283.16832,383.92935 C 286.52408,381.81965 291.11439,382.95799 295.0495,383.4343 300.33764,384.07439 305.34082,386.21079 310.39604,387.88975 313.07211,388.77854 316.98326,388.37551 318.31683,390.86004 319.35803,392.79987 316.06106,395.23337 316.83168,397.29569 317.61731,399.39817 322.62045,399.03801 322.27723,401.25608 321.79844,404.35022 316.45688,403.72485 313.36634,404.22638 310.4344,404.70217 307.41443,403.9673 304.45545,404.22638 301.61768,404.47485 298.88677,405.62037 296.0396,405.71153 293.05256,405.80717 289.82232,406.01605 287.12871,404.72143 284.60468,403.50832 282.58688,401.20691 281.18812,398.78083 279.90858,396.56153 278.91479,393.90001 279.20792,391.35509 279.52892,388.56824 280.79338,385.42242 283.16832,383.92935 Z"
       id="path820"
       inkscape:connector-curvature="0"
       sodipodi:nodetypes="aaaaaaaaaaaaa" />
    <path
       style="fill:#000000;stroke:none;stroke-width:1px;stroke-linecap:butt;stroke-linejoin:miter;stroke-opacity:1;fill-opacity:1"
       d="M 250.9901,410.16697 C 253.95809,408.19709 258.01816,411.482 261.38614,412.64222 265.50515,414.06116 269.03122,417.0704 273.26733,418.08777 277.12156,419.01343 281.22888,417.99249 285.14851,418.58281 288.35442,419.06564 291.72036,419.48363 294.55446,421.05806 298.12597,423.04214 301.46184,425.91325 303.46535,429.4739 304.62396,431.53299 305.04541,434.04383 304.9505,436.4046 304.88129,438.12603 304.66498,440.11856 303.46535,441.35509 301.28521,443.6023 297.63436,443.76219 294.55446,444.32539 290.49309,445.06806 286.30107,444.60059 282.17822,444.82044 279.701,444.95254 277.22605,445.50397 274.75248,445.31549 271.71852,445.08431 268.50888,444.79949 265.84158,443.33529 261.95471,441.20161 258.98525,437.557 256.43564,433.92935 254.65288,431.39279 253.53423,428.42742 252.47525,425.51351 251.36787,422.46644 250.14937,419.34619 250,416.10757 249.90751,414.10219 249.31747,411.27711 250.9901,410.16697 Z"
       id="path822"
       inkscape:connector-curvature="0"
       sodipodi:nodetypes="aaaaaaaaaaaaaaaa" />
    <path
       style="fill:#000000;stroke:none;stroke-width:1px;stroke-linecap:butt;stroke-linejoin:miter;stroke-opacity:1;fill-opacity:1"
       d="M 231.18812,497.29569 C 233.26617,488.86301 248.00032,492.92733 256.43564,490.86004 264.83281,488.8021 273.26733,486.89965 281.68317,484.91945 290.09901,482.93925 298.48268,480.81699 306.93069,478.97885 317.6191,476.65324 328.36905,474.61828 339.10891,472.54321 348.83281,470.66444 358.43854,466.38811 368.31683,467.09767 377.00912,467.72204 386.88557,469.3729 393.06931,475.51351 395.92068,478.345 397.0961,482.88178 397.0297,486.89965 396.90509,494.4396 389.21292,500.47539 388.89559,508.00969 388.66155,513.56649 392.54037,518.56171 393.56436,524.02836 394.26578,527.77294 395.15794,531.6529 394.55446,535.4145 393.75816,540.37794 391.0082,544.85582 388.61386,549.27588 386.34674,553.46108 384.7199,558.61928 380.69307,561.15707 378.71876,562.40133 375.23854,563.95466 373.76238,562.14717 370.65893,558.34713 377.55718,553.05403 378.71287,548.28579 379.30108,545.8589 379.53759,543.35171 379.70297,540.86004 379.82318,539.04885 379.15726,537.14571 379.70297,535.4145 380.30854,533.4934 382.31827,532.29013 383.16832,530.464 384.24941,528.14155 385.22682,525.59881 385.14851,523.03826 385.0528,519.90876 383.51232,516.95988 382.17822,514.12737 380.85155,511.31063 379.88122,507.83538 377.22772,506.20658 374.12149,504.29988 369.59011,506.87915 366.33663,505.23628 364.55847,504.33838 362.42574,502.75241 362.37624,500.76103 362.32373,498.64844 365.39873,497.70425 366.33663,495.81054 367.24254,493.98144 368.22581,491.8707 367.82178,489.86994 367.33182,487.44367 365.2381,485.54902 363.36634,483.92935 361.8028,482.57638 359.93453,481.42812 357.92079,480.95905 354.0603,480.05982 349.943,480.76456 346.0396,481.4541 342.28798,482.11683 338.8969,484.23873 335.14851,484.91945 328.80811,486.07088 322.16829,484.68514 315.84158,485.90955 310.3595,486.9705 305.39273,489.90688 300,491.35509 291.71737,493.57938 282.81892,493.39321 274.75248,496.30559 268.91815,498.41207 264.52381,504.1351 258.41584,505.21648 255.12969,505.79827 251.83965,503.44325 248.51485,503.73133 245.91545,503.95656 243.64333,506.73907 241.08911,506.20658 236.74242,505.3004 230.12573,501.60686 231.18812,497.29569 Z"
       id="path824"
       inkscape:connector-curvature="0"
       sodipodi:nodetypes="aaaaaaaaaaaaaaaaaaaaaaaaaaaaaaaaaaaa" />
    <path
       style="fill:#000000;stroke:none;stroke-width:1px;stroke-linecap:butt;stroke-linejoin:miter;stroke-opacity:1;fill-opacity:1"
       d="M 203.46535,492.84024 C 209.3009,490.7114 213.43748,500.32103 217.82178,504.72143 222.04212,508.95727 225.68757,513.74952 229.20792,518.58281 232.4418,523.02278 235.32363,527.71574 238.11881,532.4442 240.41083,536.32148 242.35078,540.39722 244.55446,544.32539 247.44861,549.48436 251.31323,554.16198 253.46535,559.67192 254.57237,562.50615 255.01931,565.57006 255.44554,568.58281 255.81611,571.20214 256.55097,573.92957 255.94059,576.50361 255.41165,578.73423 254.70089,581.89468 252.47525,582.4442 249.4525,583.19053 246.52547,579.90393 244.55446,577.49371 242.76939,575.31086 243.07859,571.96414 241.58416,569.57291 239.29524,565.91044 235.5855,563.35629 232.67327,560.16697 228.96778,556.10891 226.08002,551.21523 221.78218,547.79074 218.25958,544.98396 212.83245,544.77463 209.90099,541.35509 206.70775,537.63019 206.3501,532.19614 204.9505,527.49371 203.74024,523.42743 202.57011,519.31882 201.9802,515.11747 201.45197,511.35541 201.22626,507.52146 201.48515,503.73133 201.73661,500.05003 199.99893,494.10481 203.46535,492.84024 Z"
       id="path827"
       inkscape:connector-curvature="0"
       sodipodi:nodetypes="aaaaaaaaaaaaaaaaaa" />
    <path
       style="fill:#000000;stroke:none;stroke-width:1px;stroke-linecap:butt;stroke-linejoin:miter;stroke-opacity:1;fill-opacity:1"
       d="M 255.44554,522.04816 C 257.15233,524.69882 260.86164,525.71883 262.37624,528.48381 263.26259,530.10189 263.46924,532.08728 263.36634,533.92935 263.17417,537.36963 260.89639,540.42122 260.39604,543.83034 260.08453,545.95281 260.33662,548.12159 260.39604,550.26598 260.46046,552.59096 259.17479,555.55206 260.78242,557.2329 262.98556,559.53636 267.34661,559.39291 270.29703,558.18678 272.683,557.2114 274.02322,554.51451 275.24752,552.24618 276.06672,550.72841 275.97243,548.83394 276.75248,547.29569 278.24513,544.35219 282.04486,542.61094 282.69307,539.37489 283.09428,537.37193 281.44089,535.46135 281.18812,533.4343 280.94309,531.46932 282.2782,529.14686 281.18812,527.49371 279.11267,524.3462 274.35748,524.26391 270.79208,523.03826 267.72612,521.9843 264.53969,521.31541 261.38614,520.56301 259.08797,520.0147 256.03117,517.31737 254.45545,519.07786 253.75941,519.85552 254.88052,521.17068 255.44554,522.04816 Z"
       id="path829"
       inkscape:connector-curvature="0"
       sodipodi:nodetypes="aaaaaaaaaaaaaaaa" />
    <path
       style="fill:#000000;stroke:none;stroke-width:1px;stroke-linecap:butt;stroke-linejoin:miter;stroke-opacity:1;fill-opacity:1"
       d="M 310,499.35509 C 313.87185,499.05022 318.24173,499.83584 321.28713,502.24618 324.35459,504.67398 323.68988,510.18357 326.73267,512.64222 329.13049,514.57972 334.56935,512.22792 335.64356,515.11747 336.8875,518.46358 332.42248,521.71576 329.70297,524.02836 328.18402,525.32004 325.68198,525.10851 324.25743,526.50361 320.98805,529.70539 320.03386,534.63814 318.31683,538.87984 317.14202,541.78205 317.55714,545.57349 315.34653,547.79074 313.87131,549.27039 311.49213,549.67492 309.40594,549.79074 307.04551,549.92179 304.09019,550.01228 302.47525,548.28579 299.39843,544.99643 300.65335,539.42074 300.49505,534.91945 300.34381,530.619 301.32001,526.34809 301.48515,522.04816 301.6308,518.25558 300.8772,514.40839 301.48515,510.66202 301.98668,507.57148 302.33892,504.05835 304.45545,501.75113 305.81649,500.26747 307.99284,499.51313 310,499.35509 Z"
       id="path831"
       inkscape:connector-curvature="0"
       sodipodi:nodetypes="aaaaaaaaaaaaaaa" />
    <path
       style="fill:#000000;stroke:none;stroke-width:1px;stroke-linecap:butt;stroke-linejoin:miter;stroke-opacity:1;fill-opacity:1"
       d="M 147.0297,586.4046 C 147.0297,586.4046 154.84605,591.9301 159.40594,592.84024 165.09057,593.97487 171.01488,592.3086 176.73267,591.35509 179.41712,590.90742 181.98993,589.93367 184.65347,589.37489 192.35318,587.75959 200.25387,587.17892 207.92079,585.4145 211.94112,584.48929 215.78609,582.89344 219.80198,581.94915 227.96283,580.03022 236.32005,579.06731 244.55446,577.49371 259.27196,574.68119 273.94932,571.65954 288.61386,568.58281 296.21639,566.98774 303.69849,564.74706 311.38614,563.63232 324.65038,561.70896 338.08763,561.0439 351.48515,560.66202 361.21857,560.38458 370.95996,560.869 380.69307,561.15707 392.41456,561.50399 404.24307,560.91357 415.84158,562.64222 424.94651,563.99922 434.09943,565.9787 442.57426,569.57291 448.98372,572.29119 455.68648,575.3366 460.39604,580.464 464.38974,584.81203 465.94289,590.90009 468.31683,596.30558 469.80795,599.70087 474.27516,603.57758 472.27723,606.70163 469.69282,610.74274 462.69603,608.14654 457.92079,607.69173 452.14314,607.14144 446.61972,604.99594 441.08911,603.23628 428.50034,599.23094 416.44162,593.70375 403.9604,589.37489 395.28274,586.36522 386.73799,582.71566 377.72277,580.95905 366.84058,578.83866 355.63615,578.82177 344.55446,578.48381 332.3478,578.11154 320.091,577.9654 307.92079,578.97885 297.10596,579.87943 286.43874,582.09532 275.74257,583.92935 263.4935,586.02965 251.16009,587.82356 239.10891,590.86004 229.03811,593.39753 219.07158,596.46662 209.40594,600.26598 199.71958,604.07348 191.55298,612.6877 181.18812,613.63232 173.5346,614.32984 158.91089,607.69173 158.91089,607.69173 V 607.69173 C 158.91089,607.69173 149.74136,603.82834 147.52475,599.77093 145.3872,595.85824 147.0297,586.4046 147.0297,586.4046 V 586.4046"
       id="path833"
       inkscape:connector-curvature="0"
       sodipodi:nodetypes="caaaaaaaaaaaaaaaaaaaaaaaaaaaaac" />
  </g>
</svg>
