<?xml version="1.0" encoding="UTF-8" standalone="no"?>
<!-- Created with Inkscape (http://www.inkscape.org/) -->

<svg
   xmlns:dc="http://purl.org/dc/elements/1.1/"
   xmlns:cc="http://creativecommons.org/ns#"
   xmlns:rdf="http://www.w3.org/1999/02/22-rdf-syntax-ns#"
   xmlns:svg="http://www.w3.org/2000/svg"
   xmlns="http://www.w3.org/2000/svg"
   xmlns:sodipodi="http://sodipodi.sourceforge.net/DTD/sodipodi-0.dtd"
   xmlns:inkscape="http://www.inkscape.org/namespaces/inkscape"
   width="512"
   height="512"
   viewBox="0 0 512 512"
   version="1.1"
   id="svg8"
   inkscape:version="0.92.4 (5da689c313, 2019-01-14)"
   sodipodi:docname="甲.svg">
  <defs
     id="defs2" />
  <sodipodi:namedview
     id="base"
     pagecolor="#ffffff"
     bordercolor="#666666"
     borderopacity="1.0"
     inkscape:pageopacity="0.0"
     inkscape:pageshadow="2"
     inkscape:zoom="0.88"
     inkscape:cx="135.67893"
     inkscape:cy="226.54126"
     inkscape:document-units="px"
     inkscape:current-layer="layer1"
     showgrid="false"
     units="px"
     inkscape:window-width="1366"
     inkscape:window-height="705"
     inkscape:window-x="-8"
     inkscape:window-y="-8"
     inkscape:window-maximized="1" />
  <metadata
     id="metadata5">
    <rdf:RDF>
      <cc:Work
         rdf:about="">
        <dc:format>image/svg+xml</dc:format>
        <dc:type
           rdf:resource="http://purl.org/dc/dcmitype/StillImage" />
        <dc:title></dc:title>
      </cc:Work>
    </rdf:RDF>
  </metadata>
  <g
     inkscape:label="圖層 1"
     inkscape:groupmode="layer"
     id="layer1"
     transform="translate(0,-161.53336)">
    <path
       style="fill:#000000;fill-opacity:1;stroke:none;stroke-width:1px;stroke-linecap:butt;stroke-linejoin:miter;stroke-opacity:1"
       d="M 141.80488,258.11873 C 136.55054,261.2392 139.54423,270.38966 140.58537,276.41141 141.66032,282.6287 145.01908,288.27987 148.1127,293.77894 153.26998,302.94628 161.58961,310.15241 166.34231,319.53588 168.59555,323.98456 169.57614,328.97172 171.07317,333.72848 174.50964,344.64775 177.24559,355.78347 180.82927,366.65531 183.80835,375.69299 186.82531,384.74293 190.58537,393.48458 193.45866,400.16461 194.15573,409.17378 200.34146,412.99677 203.4536,414.92018 208.73009,415.58375 211.31707,412.99677 216.20358,408.11026 212.12288,399.12849 211.31707,392.26507 210.29383,383.54971 207.21726,375.2001 205.21951,366.65531 199.42755,341.88194 198.85727,315.34196 188.14634,292.26507 184.72355,284.89061 179.83469,277.86407 173.5122,272.75287 164.45977,265.43475 151.81343,252.17481 141.80488,258.11873 Z"
       id="path826"
       inkscape:connector-curvature="0"
       sodipodi:nodetypes="aaaaaaaaaaaaaa" />
    <path
       style="fill:#000000;fill-opacity:1;stroke:none;stroke-width:1px;stroke-linecap:butt;stroke-linejoin:miter;stroke-opacity:1"
       d="M 181.58621,259.46439 C 177.31468,267.78798 194.20774,273.27786 200.55172,280.15405 204.2744,284.18903 206.92448,289.62101 211.75862,292.22302 213.29774,293.05146 215.18556,293.1775 216.93103,293.08508 222.29178,292.80123 227.38829,290.5677 232.44828,288.77474 239.24129,286.3677 245.45217,282.47269 252.27586,280.15405 262.37213,276.72341 273.01765,275.18191 283.31034,272.39543 290.24463,270.51815 297.20874,268.70345 304,266.36095 309.85153,264.34259 315.38433,261.46667 321.24138,259.46439 327.17991,257.43425 333.10717,253.59975 339.34483,254.29198 342.92343,254.68912 347.14106,256.28325 348.82759,259.46439 353.01968,267.37153 347.28824,277.3003 346.24138,286.18853 345.01971,296.56096 343.2668,306.86466 341.93103,317.22302 340.37655,329.27739 343.21421,342.63932 337.62069,353.42991 335.84151,356.86216 331.52874,358.26427 329,361.18853 322.22302,369.02551 310.27153,376.7971 311.75862,387.0506 312.40288,391.49277 319.46522,392.0398 322.10345,395.67129 325.74157,400.67911 325.79337,407.61817 329,412.91267 330.37246,415.17875 331.60197,418.3056 334.17241,418.94715 341.05835,420.6658 349.79264,416.90413 354,411.18853 361.17297,401.44422 355.08959,386.98844 356.58621,374.98164 357.59716,366.87115 359.18601,358.83596 360.89655,350.8437 363.1282,340.41664 365.45838,329.98195 368.65517,319.80922 370.59111,313.64871 372.23425,307.24599 375.55172,301.70577 382.98156,289.29785 403.20824,283.38779 404,268.94715 404.49748,259.87377 394.58261,253.26875 388.48276,246.53336 383.41952,240.94258 377.6859,235.79756 371.24138,231.87819 365.40552,228.32899 358.83281,222.20632 352.27586,224.11957 346.53573,225.79448 346.98393,235.57746 341.93103,238.77474 336.26218,242.36177 328.72112,241.12345 322.10345,242.22301 293.11595,247.03942 263.98557,250.9855 235.03448,256.01612 224.37344,257.86861 213.95255,261.6852 203.13793,262.0506 195.90661,262.29493 184.88972,253.02711 181.58621,259.46439 Z"
       id="path830"
       inkscape:connector-curvature="0"
       sodipodi:nodetypes="aaaaaaaaaaaaaaaaaaaaaaaaaaaaaaaaa" />
    <path
       style="fill:#000000;fill-opacity:1;stroke:none;stroke-width:1px;stroke-linecap:butt;stroke-linejoin:miter;stroke-opacity:1"
       d="M 226.41379,337.91267 C 229.27665,331.16901 239.33942,330.8867 246.24138,328.42991 255.43381,325.15781 265.31167,324.22794 274.68966,321.53336 279.92984,320.0277 284.80872,317.12655 290.2069,316.36095 297.32532,315.35138 304.68624,315.92974 311.75862,317.22302 314.44026,317.71339 318.83343,317.17028 319.51725,319.80923 320.69064,324.33749 313.82051,327.40669 310.03448,330.15405 301.60387,336.27177 291.03735,338.70585 281.58621,343.08508 271.20611,347.89474 261.95993,356.88463 250.55172,357.74026 244.56835,358.18902 238.28355,355.92481 233.31034,352.56784 231.78529,351.53841 230.74137,349.87377 229.86207,348.25749 228.12506,345.0646 224.99341,341.25846 226.41379,337.91267 Z"
       id="path832"
       inkscape:connector-curvature="0"
       sodipodi:nodetypes="aaaaaaaaaaaa" />
    <path
       style="fill:#000000;fill-opacity:1;stroke:none;stroke-width:1px;stroke-linecap:butt;stroke-linejoin:miter;stroke-opacity:1"
       d="M 254.86207,282.74026 C 254.87237,288.38591 258.54691,293.50867 259.17241,299.11957 261.88028,323.40959 256.64714,347.95501 256.58621,372.39543 256.49161,410.34376 260.32155,448.24117 260.03448,486.18853 259.84299,511.50127 265.38727,538.31639 256.58621,562.0506 251.88943,574.71662 231.33305,580.44072 231.58621,593.94715 231.67791,598.83979 238.22035,601.17514 241.06897,605.15405 245.94589,611.96604 249.85775,619.42364 254,626.70577 256.09776,630.39365 256.16315,636.17661 260.03448,637.91267 265.69458,640.45089 274.13823,638.34382 278.13793,633.60233 283.89363,626.77917 279.72943,615.80377 279.86207,606.87819 280.47729,565.47851 276.16875,524.13991 275.55172,482.74026 274.67811,424.12538 271.62515,365.30367 276.41379,306.87819 277.00809,299.62722 281.57055,292.3983 279.86207,285.32646 277.35164,274.93513 271.39538,257.45029 260.89655,259.46439 253.02496,260.97448 254.84744,274.72514 254.86207,282.74026 Z"
       id="path834"
       inkscape:connector-curvature="0"
       sodipodi:nodetypes="aaaaaaaaaaaaaaaa" />
    <path
       style="fill:#000000;fill-opacity:1;stroke:none;stroke-width:1px;stroke-linecap:butt;stroke-linejoin:miter;stroke-opacity:1"
       d="M 159.17241,419.80922 C 168.13925,414.7803 177.27386,409.98268 186.75862,406.01612 199.08254,400.86221 211.83707,396.72551 224.68966,393.08508 237.16499,389.55151 249.98534,387.37434 262.62069,384.4644 271.24713,382.47772 279.78248,380.06316 288.48276,378.42991 302.46199,375.80567 317.23063,367.89759 330.72414,372.39543 336.12154,374.19456 344.33763,378.98869 342.7931,384.46439 338.78182,398.6853 314.11089,391.59163 299.68966,394.80922 281.6484,398.83449 263.03973,400.55723 245.37931,406.01612 229.01249,411.07516 213.93987,419.65606 197.96552,425.8437 189.9986,428.92968 182.34867,433.84283 173.82759,434.46439 167.98218,434.89077 161.40753,434.34862 156.58621,431.01612 154.35616,429.47471 151.66629,426.76106 152.27586,424.11957 152.88543,421.47808 156.80796,421.13528 159.17241,419.80922 Z"
       id="path836"
       inkscape:connector-curvature="0"
       sodipodi:nodetypes="aaaaaaaaaaaaaa" />
  </g>
</svg>
