<?xml version="1.0" encoding="UTF-8" standalone="no"?>
<!-- Created with Inkscape (http://www.inkscape.org/) -->

<svg
   xmlns:dc="http://purl.org/dc/elements/1.1/"
   xmlns:cc="http://creativecommons.org/ns#"
   xmlns:rdf="http://www.w3.org/1999/02/22-rdf-syntax-ns#"
   xmlns:svg="http://www.w3.org/2000/svg"
   xmlns="http://www.w3.org/2000/svg"
   xmlns:sodipodi="http://sodipodi.sourceforge.net/DTD/sodipodi-0.dtd"
   xmlns:inkscape="http://www.inkscape.org/namespaces/inkscape"
   width="512"
   height="512"
   viewBox="0 0 512 512"
   version="1.1"
   id="svg8"
   inkscape:version="0.92.4 (5da689c313, 2019-01-14)"
   sodipodi:docname="筵.svg">
  <defs
     id="defs2" />
  <sodipodi:namedview
     id="base"
     pagecolor="#ffffff"
     bordercolor="#666666"
     borderopacity="1.0"
     inkscape:pageopacity="0.0"
     inkscape:pageshadow="2"
     inkscape:zoom="0.94"
     inkscape:cx="89.657951"
     inkscape:cy="247.88732"
     inkscape:document-units="px"
     inkscape:current-layer="layer1"
     showgrid="false"
     units="px"
     inkscape:window-width="1366"
     inkscape:window-height="705"
     inkscape:window-x="-8"
     inkscape:window-y="-8"
     inkscape:window-maximized="1" />
  <metadata
     id="metadata5">
    <rdf:RDF>
      <cc:Work
         rdf:about="">
        <dc:format>image/svg+xml</dc:format>
        <dc:type
           rdf:resource="http://purl.org/dc/dcmitype/StillImage" />
        <dc:title></dc:title>
      </cc:Work>
    </rdf:RDF>
  </metadata>
  <g
     inkscape:label="圖層 1"
     inkscape:groupmode="layer"
     id="layer1"
     transform="translate(0,-161.53331)">
    <path
       style="fill:#000000;stroke:none;stroke-width:1px;stroke-linecap:butt;stroke-linejoin:miter;stroke-opacity:1;fill-opacity:1"
       d="M 73.239437,312.96993 C 80.276485,302.9849 98.151644,310.89196 109.85915,314.37838 117.73017,316.72232 127.39147,319.67021 130.98592,327.05444 134.2992,333.86106 133.84422,344.57968 128.16901,349.58965 124.6494,352.6967 118.62206,350.79466 114.08451,349.58965 106.76792,347.64662 100.85456,342.22191 94.366197,338.32204 89.40726,335.34145 83.392955,333.50013 79.690141,329.05444 75.993182,324.61578 69.911701,317.69173 73.239437,312.96993 Z"
       id="path826"
       inkscape:connector-curvature="0"
       sodipodi:nodetypes="aaaaaaaa" />
    <path
       style="fill:#000000;stroke:none;stroke-width:1px;stroke-linecap:butt;stroke-linejoin:miter;stroke-opacity:1;fill-opacity:1"
       d="M 59.15493,418.60373 C 63.020415,411.2812 74.468172,412.20329 81.690141,408.15303 92.025031,402.35697 101.55305,395.21938 111.26761,388.43472 115.55885,385.43771 119.20388,381.38775 123.94366,379.16711 125.69654,378.34586 127.67727,377.38945 129.57746,377.75866 135.8459,378.97662 140.86956,384.21695 145.07042,389.02627 149.63059,394.24693 157.14373,400.76742 154.92958,407.33613 153.1176,412.71175 145.10844,414.48338 139.43662,414.37838 136.28777,414.32009 134.13519,410.18075 130.98592,410.15303 125.26176,410.10264 119.43978,413.41526 115.49296,417.56148 112.98007,420.20133 112.83733,424.3567 111.26761,427.64599 107.00109,436.5863 106.28633,449.90816 97.183099,453.815 92.264042,455.92611 86.388981,452.15379 81.690141,449.58965 76.145693,446.56406 71.813588,441.62403 67.605634,436.91359 64.915045,433.90171 62.108904,430.78567 60.56338,427.05444 59.470528,424.41606 57.82176,421.1292 59.15493,418.60373 Z"
       id="path828"
       inkscape:connector-curvature="0"
       sodipodi:nodetypes="aaaaaaaaaaaaaaaa" />
    <path
       style="fill:#000000;stroke:none;stroke-width:1px;stroke-linecap:butt;stroke-linejoin:miter;stroke-opacity:1;fill-opacity:1"
       d="M 131.35211,516.96993 C 139.76627,509.64043 153.83935,516.45183 164.78873,518.60373 181.39847,521.86807 196.56932,530.29821 212.67606,535.50514 228.50788,540.62319 244.70556,544.55275 260.56338,549.58965 279.94906,555.7471 298.58759,564.33294 318.30986,569.30796 343.23101,575.59442 368.69057,580.82411 394.3662,581.98401 413.1791,582.83388 431.91122,578.97118 450.70423,577.75866 468.06438,576.63858 502.8169,574.94176 502.8169,574.94176 508.0546,577.50824 496.14472,584.80526 491.40845,588.20937 476.63662,598.82638 458.31381,603.66807 440.84507,608.74458 430.76414,611.67415 420.10199,612.07801 409.85915,614.37838 400.44991,616.49154 391.55633,622.10248 381.91549,621.87134 364.09481,621.44408 347.83498,611.38114 330.98592,605.56148 311.10703,598.69532 291.299,591.57465 271.83099,583.61782 264.21312,580.5043 256.87366,576.74291 249.29577,573.53331 237.65558,568.60314 225.61635,564.62736 214.08451,559.4488 207.38084,556.43841 201.19058,552.31536 194.3662,549.58965 187.52823,546.85852 180.58769,543.60799 173.23944,543.13894 163.25836,542.50183 153.34512,550.6841 143.66197,548.1812 137.84096,546.67658 131.93898,542.44272 129.57746,536.91359 126.95598,530.77582 126.31956,521.35374 131.35211,516.96993 Z"
       id="path830"
       inkscape:connector-curvature="0"
       sodipodi:nodetypes="aaaaaaasaaaaaaaaaaaaa" />
    <path
       style="fill:#000000;stroke:none;stroke-width:1px;stroke-linecap:butt;stroke-linejoin:miter;stroke-opacity:1;fill-opacity:1"
       d="M 187.32394,227.05444 C 179.72189,234.99145 196.40082,247.27058 198.59155,258.04035 200.3721,266.79363 201.45804,275.98818 200,284.80092 198.76196,292.28393 195.90882,299.72101 191.5493,305.92768 185.0505,315.18005 174.11098,320.38747 166.19718,328.46289 159.71746,335.07495 142.7485,342.08471 148.16901,349.58965 153.15521,356.49327 164.83804,344.81598 171.83099,339.95585 179.24163,334.80542 183.79284,326.4268 190.14085,320.01218 197.38354,312.6935 207.12232,307.5558 212.67606,298.88542 217.48074,291.38446 221.53041,282.43198 221.12676,273.53331 220.75522,265.34256 214.93212,258.3328 211.26761,250.9981 207.85502,244.16764 205.93188,235.86211 200,231.05444 196.55785,228.26464 190.38869,223.85465 187.32394,227.05444 Z"
       id="path832"
       inkscape:connector-curvature="0"
       sodipodi:nodetypes="aaaaaaaaaaaaa" />
    <path
       style="fill:#000000;stroke:none;stroke-width:1px;stroke-linecap:butt;stroke-linejoin:miter;stroke-opacity:1;fill-opacity:1"
       d="M 292.95775,201.70232 C 292.81109,210.35793 308.17613,211.20835 312.67606,218.60373 316.93809,225.60813 317.97297,234.35514 318.30986,242.54739 318.69999,252.03409 317.50419,261.8589 314.08451,270.71641 311.03616,278.61213 302.21432,283.67423 300,291.84317 299.11904,295.09317 297.49383,300.60756 300.59155,301.92768 308.96109,305.49444 315.25457,290.96149 321.35211,284.20937 328.45861,276.33998 335.0662,267.70105 339.43662,258.04035 342.62807,250.98574 345.68886,243.22332 345.07042,235.50514 344.49926,228.37703 341.27306,221.21663 336.61972,215.78683 330.85543,209.06071 321.98399,205.71054 314.08451,201.70232 309.57528,199.41432 305.00187,195.3273 300,196.06852 297.02631,196.50918 293.00868,198.69659 292.95775,201.70232 Z"
       id="path834"
       inkscape:connector-curvature="0"
       sodipodi:nodetypes="aaaaaaaaaaaaa" />
    <path
       style="fill:#000000;stroke:none;stroke-width:1px;stroke-linecap:butt;stroke-linejoin:miter;stroke-opacity:1;fill-opacity:1"
       d="M 281.69014,336.91359 C 277.54071,339.98807 283.73072,347.66248 281.69014,352.40655 276.83496,363.69421 264.1316,369.61575 254.92958,377.75866 244.44061,387.0404 233.99007,396.45974 222.53521,404.51923 208.24562,414.57319 182.38841,414.51577 177.46479,431.27979 177.16896,432.28704 177.89914,433.70529 178.87324,434.09669 191.82553,439.301 205.74174,426.08582 218.30986,420.01218 230.76183,413.99467 241.58756,405.05793 253.52113,398.06852 268.31224,389.40547 283.72866,381.84728 298.59155,373.30796 305.78932,369.17255 317.38551,368.38824 319.94366,360.49106 321.47599,355.76067 321.13655,351.68139 314.08451,346.77275 304.82154,340.32317 290.75915,330.194 281.69014,336.91359 Z"
       id="path836"
       inkscape:connector-curvature="0"
       sodipodi:nodetypes="aaaaaaaaaaca" />
    <path
       style="fill:#000000;stroke:none;stroke-width:1px;stroke-linecap:butt;stroke-linejoin:miter;stroke-opacity:1;fill-opacity:1"
       d="M 238.02817,443.95585 C 227.29322,446.57702 230.3912,465.3159 230.98592,476.35021 231.54523,486.72761 235.09027,497.27404 240.84507,505.92768 243.60865,510.08334 247.23444,516.84021 252.11268,515.78683 257.65767,514.58947 258.16879,505.88029 259.15493,500.29387 260.38278,493.33813 257.96108,486.21667 257.52113,479.16711 257.26233,475.02026 258.43304,470.58977 256.92958,466.71641 253.36105,457.52283 247.60857,441.61659 238.02817,443.95585 Z"
       id="path838"
       inkscape:connector-curvature="0"
       sodipodi:nodetypes="aaaaaaaa" />
    <path
       style="fill:#000000;stroke:none;stroke-width:1px;stroke-linecap:butt;stroke-linejoin:miter;stroke-opacity:1;fill-opacity:1"
       d="M 330.98592,407.33613 C 328.32598,413.85672 338.68235,419.25792 343.66197,424.23754 348.64159,429.21716 353.54146,437.44828 360.56338,436.91359 365.80695,436.51432 370.41196,430.76748 371.60563,425.64599 372.52091,421.71893 370.44222,417.22565 367.83099,414.15303 363.32184,408.84714 356.1662,405.65153 349.29577,404.51923 343.20287,403.51508 333.31832,401.61847 330.98592,407.33613 Z"
       id="path840"
       inkscape:connector-curvature="0"
       sodipodi:nodetypes="aaaaaaa" />
    <path
       style="fill:#000000;stroke:none;stroke-width:1px;stroke-linecap:butt;stroke-linejoin:miter;stroke-opacity:1;fill-opacity:1"
       d="M 188.42553,271.40565 C 188.42553,271.40565 207.61602,291.1953 218.08511,300.12905 224.82875,305.8837 234.72052,308.53322 239.3617,316.0865 242.56647,321.30209 243.16103,328.08034 242.55319,334.17161 241.98589,339.8566 241.55553,347.89344 236.29787,350.12905 230.33449,352.66474 222.38558,347.7447 218.34043,342.68225 215.42031,339.02776 217.41624,333.29704 215.95745,328.85246 213.73196,322.07195 209.4938,316.1262 206.38298,309.70352 200.23681,297.01399 187.16886,285.17822 188.42553,271.40565 Z"
       id="path821"
       inkscape:connector-curvature="0"
       sodipodi:nodetypes="saaaaaaas" />
    <path
       style="fill:#000000;stroke:none;stroke-width:1px;stroke-linecap:butt;stroke-linejoin:miter;stroke-opacity:1;fill-opacity:1"
       d="M 234.04255,257.57586 C 238.15069,255.12717 244.37482,258.43752 247.74468,261.83118 249.57217,263.67159 247.79676,267.90957 250,269.27799 257.32939,273.83023 266.90398,264.98159 275.53191,265.02267 281.65336,265.05182 287.80464,266.29342 293.61702,268.21416 295.87569,268.96055 299.45346,269.09049 300,271.40565 301.22209,276.58251 294.73035,281.04721 290.42553,284.17161 281.63313,290.55305 270.21646,292.49659 259.57447,294.68225 255.04545,295.61242 250.12246,297.23345 245.74468,295.74608 240.78026,294.05939 236.70455,289.75253 234.04255,285.23544 231.82566,281.47365 231.17498,276.83536 231.10638,272.46948 231.02689,267.41001 229.69602,260.16665 234.04255,257.57586 Z"
       id="path823"
       inkscape:connector-curvature="0"
       sodipodi:nodetypes="aaaaaaaaaaaa" />
    <path
       style="fill:#000000;stroke:none;stroke-width:1px;stroke-linecap:butt;stroke-linejoin:miter;stroke-opacity:1;fill-opacity:1"
       d="M 340.42553,270.34182 C 343.16255,262.58545 356.68579,267.68337 364.89362,267.15033 371.61704,266.7137 378.41372,266.37356 385.10638,267.15033 391.25808,267.86431 398.43744,267.43674 403.19149,271.40565 406.68299,274.32052 409.90199,279.54706 408.6383,283.91629 407.19435,288.90876 400.82104,291.56855 395.74468,292.68225 391.53088,293.60672 387.28374,290.83304 382.97872,290.55459 375.50014,290.07088 367.45316,294.18525 360.51064,291.3631 351.53269,287.71354 337.20059,279.48089 340.42553,270.34182 Z"
       id="path825"
       inkscape:connector-curvature="0"
       sodipodi:nodetypes="aaaaaaaaa" />
    <path
       style="fill:#000000;stroke:none;stroke-width:1px;stroke-linecap:butt;stroke-linejoin:miter;stroke-opacity:1;fill-opacity:1"
       d="M 331.91489,292.68225 C 328.83377,295.70175 334.94787,301.23025 334.04255,305.4482 332.70098,311.69867 327.45724,316.46181 323.40426,321.40565 321.17867,324.12044 314.96321,325.48574 315.95745,328.85246 317.39544,333.72181 325.85015,332.92101 330.85106,332.04395 336.20466,331.10503 340.24624,326.54839 344.68085,323.40565 346.53342,322.09276 348.77867,321.0645 350,319.15033 353.21241,314.11557 355.86444,307.49753 354.25532,301.74608 353.49325,299.02225 350.75707,297.06565 348.25532,295.74608 343.35366,293.16065 335.87286,288.80343 331.91489,292.68225 Z"
       id="path829"
       inkscape:connector-curvature="0"
       sodipodi:nodetypes="aaaaaaaaaa" />
    <path
       style="fill:#000000;stroke:none;stroke-width:1px;stroke-linecap:butt;stroke-linejoin:miter;stroke-opacity:1;fill-opacity:1"
       d="M 268.08511,398.0014 C 272.37969,391.90737 283.25517,397.02398 290.42553,399.06522 297.44837,401.06446 304.13613,404.83097 309.57447,409.70352 311.89729,411.78468 313.99074,414.3804 314.98592,417.33613 318.13615,426.69249 316.17445,437.0675 315.95745,446.93757 315.7542,456.18243 314.78274,465.39928 313.82979,474.59714 312.98216,482.77846 313.26016,491.26917 310.6383,499.06522 309.72697,501.77504 309.24024,506.41362 306.38298,506.51203 299.99395,506.73208 296.73067,496.87092 295.74468,490.55459 295.34651,488.00388 297.62545,485.67755 297.87234,483.10778 298.65528,474.9585 296.73344,466.76657 295.74468,458.63969 295.22447,454.364 294.54918,450.10516 293.74468,445.87374 293.4053,444.08873 293.20982,442.24878 292.55319,440.55459 290.48681,435.22311 287.37831,430.30502 284.04255,425.66097 281.55144,422.19285 277.79513,419.70745 275.53191,416.0865 272.07648,410.55813 264.32961,403.33048 268.08511,398.0014 Z"
       id="path831"
       inkscape:connector-curvature="0"
       sodipodi:nodetypes="aaaaaaaaaaaaaaaa" />
    <path
       style="fill:#000000;stroke:none;stroke-width:1px;stroke-linecap:butt;stroke-linejoin:miter;stroke-opacity:1;fill-opacity:1"
       d="M 113.70213,453.06522 C 109.11898,458.28112 119.70955,465.70522 121.2766,472.46948 122.24031,476.62938 122.59652,480.97306 122.34043,485.23544 121.47189,499.69161 118.11089,514.03523 113.57447,527.78863 109.41182,540.40886 103.89274,552.71554 96.808511,563.95884 91.168948,572.90933 84.952474,581.93994 76.595745,588.42693 71.332802,592.51234 61.319352,590.89603 58.510638,596.93757 56.189887,601.9295 59.685137,608.33279 62.765957,612.89501 63.758223,614.3644 65.252688,616.21219 67.021277,616.0865 73.5243,615.62434 76.4367,607.05424 80.851064,602.25671 89.028907,593.36903 97.711034,584.74801 104.25532,574.59714 110.42302,565.0304 114.05297,554.04808 118.89362,543.74608 123.08005,534.83641 128.05495,526.24556 131.35211,516.96993 134.51649,508.06782 137.13132,498.86626 138.29787,489.49076 138.64815,486.67559 137.45107,483.68767 138.29787,480.98012 139.4571,477.27362 144.9274,475.28919 144.93617,471.40565 144.94783,466.24371 140.41259,461.58043 136.17021,458.63969 129.82842,454.24368 118.79553,447.26863 113.70213,453.06522 Z"
       id="path833"
       inkscape:connector-curvature="0"
       sodipodi:nodetypes="aaaaaaaaaaaaaaaaaa" />
    <path
       style="fill:#000000;stroke:none;stroke-width:1px;stroke-linecap:butt;stroke-linejoin:miter;stroke-opacity:1;fill-opacity:1"
       d="M 207.31915,511.83118 C 209.72067,502.72736 225.19325,505.90443 234.17021,503.06522 245.44273,499.49998 256.60452,495.50656 268.08511,492.68225 273.69061,491.30325 279.35852,490.02497 285.10638,489.49076 298.52373,488.24375 312.05965,489.77131 325.53191,489.49076 334.04809,489.31342 342.73472,486.64291 351.06383,488.42693 355.71591,489.42336 360.71261,491.21577 363.82979,494.80991 366.7687,498.1985 369.21848,503.23591 368.08511,507.57586 367.3874,510.24756 364.46946,512.00379 361.95745,513.15033 354.40763,516.59626 345.48788,515.22138 337.23404,516.0865 325.54768,517.3114 313.68309,517.14643 302.12766,519.27799 290.53546,521.41634 279.4986,525.90561 268.08511,528.85246 258.91403,531.22034 249.80967,536.64901 240.42553,535.3631 231.60104,534.15388 224.01674,527.98286 217.02128,522.46948 213.2519,519.49869 206.09499,516.47179 207.31915,511.83118 Z"
       id="path835"
       inkscape:connector-curvature="0"
       sodipodi:nodetypes="aaaaaaaaaaaaaaa" />
  </g>
</svg>
