<?xml version="1.0" encoding="UTF-8" standalone="no"?>
<!-- Created with Inkscape (http://www.inkscape.org/) -->

<svg
   xmlns:dc="http://purl.org/dc/elements/1.1/"
   xmlns:cc="http://creativecommons.org/ns#"
   xmlns:rdf="http://www.w3.org/1999/02/22-rdf-syntax-ns#"
   xmlns:svg="http://www.w3.org/2000/svg"
   xmlns="http://www.w3.org/2000/svg"
   xmlns:sodipodi="http://sodipodi.sourceforge.net/DTD/sodipodi-0.dtd"
   xmlns:inkscape="http://www.inkscape.org/namespaces/inkscape"
   width="512"
   height="512"
   viewBox="0 0 512 512"
   version="1.1"
   id="svg8"
   inkscape:version="0.92.4 (5da689c313, 2019-01-14)"
   sodipodi:docname="肆.svg">
  <defs
     id="defs2" />
  <sodipodi:namedview
     id="base"
     pagecolor="#ffffff"
     bordercolor="#666666"
     borderopacity="1.0"
     inkscape:pageopacity="0.0"
     inkscape:pageshadow="2"
     inkscape:zoom="1.0729879"
     inkscape:cx="245.5523"
     inkscape:cy="221.1417"
     inkscape:document-units="px"
     inkscape:current-layer="layer1"
     showgrid="false"
     units="px"
     inkscape:window-width="1366"
     inkscape:window-height="705"
     inkscape:window-x="-8"
     inkscape:window-y="-8"
     inkscape:window-maximized="1" />
  <metadata
     id="metadata5">
    <rdf:RDF>
      <cc:Work
         rdf:about="">
        <dc:format>image/svg+xml</dc:format>
        <dc:type
           rdf:resource="http://purl.org/dc/dcmitype/StillImage" />
        <dc:title></dc:title>
      </cc:Work>
    </rdf:RDF>
  </metadata>
  <g
     inkscape:label="圖層 1"
     inkscape:groupmode="layer"
     id="layer1"
     transform="translate(0,-161.53331)">
    <path
       style="fill:#000000;stroke:none;stroke-width:1px;stroke-linecap:butt;stroke-linejoin:miter;stroke-opacity:1;fill-opacity:1"
       d="M 168.14241,290.5106 C 171.70735,287.36612 177.68422,290.60064 182.39176,289.94063 189.55635,288.93614 196.34792,286.02008 203.48081,284.81086 211.19734,283.50269 219.13667,281.20265 226.84976,282.53096 233.46687,283.67052 242.44109,284.91019 245.08893,291.08058 246.03663,293.28905 244.19707,295.95843 242.80904,297.92027 241.55788,299.68865 239.61094,300.92967 237.67927,301.91009 232.74573,304.41412 226.89847,304.52222 221.71999,306.46988 214.64022,309.13262 208.03034,312.90793 201.20092,316.15945 196.44393,318.42428 192.14563,322.11593 186.95156,322.99914 185.25546,323.28755 183.35231,323.21494 181.82179,322.42916 177.27401,320.09427 174.44132,315.25402 171.56225,311.02968 169.40892,307.87019 167.00103,304.55114 166.43249,300.77014 165.91696,297.34166 165.54233,292.80402 168.14241,290.5106 Z"
       id="path826"
       inkscape:connector-curvature="0"
       sodipodi:nodetypes="aaaaaaaaaaaaaa" />
    <path
       style="fill:#000000;stroke:none;stroke-width:1px;stroke-linecap:butt;stroke-linejoin:miter;stroke-opacity:1;fill-opacity:1"
       d="M 177.83197,341.80829 C 180.19353,340.13573 182.97685,344.64627 185.81161,345.22813 186.74217,345.41913 187.72159,345.36608 188.66148,345.22813 194.54911,344.36401 199.83404,340.63267 205.76071,340.09836 209.18808,339.78937 212.91886,339.75728 216.02025,341.24849 219.28497,342.81823 223.97002,345.31474 223.70981,348.92788 223.24173,355.42743 213.67359,357.34134 208.04061,360.61744 200.86942,364.78814 193.52889,370.97412 185.24164,370.59708 183.07474,370.49849 180.70679,369.28693 179.54189,367.45713 174.94026,360.22901 170.83949,346.76066 177.83197,341.80829 Z"
       id="path828"
       inkscape:connector-curvature="0"
       sodipodi:nodetypes="aaaaaaaaaa" />
    <path
       style="fill:#000000;stroke:none;stroke-width:1px;stroke-linecap:butt;stroke-linejoin:miter;stroke-opacity:1;fill-opacity:1"
       d="M 152.7531,399.94566 C 155.66221,394.50995 162.64709,392.481 168.14241,389.68613 171.57144,387.94216 175.17916,386.3402 178.97192,385.69631 184.69407,384.72487 190.67031,384.9529 196.38158,385.98638 199.44799,386.54126 204.05149,386.21566 205.19074,389.11615 206.99266,393.70376 201.38278,398.33947 198.35104,402.22556 196.9438,404.02936 195.20189,405.64027 193.22128,406.78535 185.41928,411.29606 176.53159,414.35964 167.57243,415.33497 163.96397,415.7278 159.91554,415.95848 156.74292,414.19502 154.84952,413.14259 153.45612,411.11423 152.7531,409.06525 151.76655,406.18992 151.31872,402.62583 152.7531,399.94566 Z"
       id="path830"
       inkscape:connector-curvature="0"
       sodipodi:nodetypes="aaaaaaaaaaa" />
    <path
       style="fill:#000000;stroke:none;stroke-width:1px;stroke-linecap:butt;stroke-linejoin:miter;stroke-opacity:1;fill-opacity:1"
       d="M 31.068688,470.62247 C 34.388455,464.74101 44.604255,470.38276 51.297684,469.48252 59.38565,468.39473 67.515144,466.99426 75.236603,464.35275 85.608495,460.80453 94.594371,453.90726 104.87526,450.1034 110.40765,448.05646 116.23745,446.91605 121.97449,445.5436 128.20783,444.05243 134.54111,443.006 140.78364,441.55378 155.10083,438.22312 169.14491,433.74007 183.53171,430.72427 197.10478,427.87904 210.94181,426.45359 224.56986,423.88458 231.8201,422.51785 238.87457,418.7349 246.22888,419.32479 254.1435,419.95962 261.79893,423.55992 268.45788,427.88458 270.4839,429.20038 273.32839,430.60232 273.58765,433.00417 273.927,436.148 271.40663,439.84204 268.45788,440.98381 262.95694,443.11381 257.17882,437.3847 251.35865,436.42402 242.90445,435.02857 234.27374,434.43145 225.70981,434.71409 217.08923,434.9986 208.56395,436.68663 200.06097,438.13394 189.92265,439.85961 179.84803,441.9851 169.85233,444.40366 157.39751,447.41723 144.91929,450.489 132.804,454.66319 122.49607,458.21468 112.49096,462.62618 102.59537,467.20263 94.266173,471.05467 86.244084,475.53883 78.086474,479.74206 73.139366,482.29107 68.729064,486.3645 63.267143,487.43162 55.214491,489.0049 45.583373,489.70564 38.75825,485.15173 34.200174,482.11045 28.375227,475.39433 31.068688,470.62247 Z"
       id="path832"
       inkscape:connector-curvature="0"
       sodipodi:nodetypes="aaaaaaaaaaaaaaaaaaaaaa" />
    <path
       style="fill:#000000;stroke:none;stroke-width:1px;stroke-linecap:butt;stroke-linejoin:miter;stroke-opacity:1;fill-opacity:1"
       d="M 159.59279,471.76242 C 149.91155,471.4087 140.49914,477.73804 133.37398,484.30185 131.43271,486.09018 130.55932,488.77815 129.38416,491.14155 128.28449,493.35313 128.80083,496.99985 126.53429,497.98124 123.555,499.27124 120.4089,493.30639 117.4147,494.56139 113.96322,496.00806 113.0788,501.08523 112.8549,504.82093 112.54569,509.98 114.34456,515.48264 117.4147,519.64026 120.82675,524.2609 126.02013,528.26281 131.66406,529.32982 135.87585,530.12608 140.12691,527.80462 144.20349,526.47995 148.3318,525.13847 152.41501,523.52282 156.17295,521.35018 161.10737,518.49736 165.039,514.14334 169.85233,511.09064 172.93853,509.13332 176.6022,508.13206 179.54189,505.96088 182.56771,503.72608 185.24835,500.97834 187.52153,497.98124 189.62921,495.20234 194.71947,491.67008 192.6513,488.86165 189.4252,484.48083 181.83612,490.51017 176.69202,492.28149 169.70221,494.68836 163.67523,499.40327 156.74292,501.97106 153.24259,503.26761 149.6153,504.34199 145.91341,504.82093 143.84078,505.08908 140.86569,506.51635 139.6437,504.82093 137.18462,501.40914 140.87797,496.02864 143.63351,492.85147 145.30362,490.92581 148.06638,490.27103 150.47321,489.43162 153.95641,488.21681 157.90173,488.58063 161.30272,487.15173 163.19736,486.35571 165.32745,485.46457 166.43249,483.73188 167.7762,481.62494 168.65826,478.57292 167.57243,476.32221 166.24128,473.56301 162.65427,471.87428 159.59279,471.76242 Z"
       id="path834"
       inkscape:connector-curvature="0"
       sodipodi:nodetypes="aaaaaaaaaaaaaaaaaaaaaaaa" />
    <path
       style="fill:#000000;stroke:none;stroke-width:1px;stroke-linecap:butt;stroke-linejoin:miter;stroke-opacity:1;fill-opacity:1"
       d="M 192.3714,469.76242 C 187.1609,473.42174 191.18082,482.66669 192.6513,488.86165 194.26051,495.64107 196.82662,502.76119 201.77089,507.6708 204.90663,510.78456 209.48041,514.54579 213.74035,513.37054 218.36283,512.09527 220.33043,505.9905 221.71999,501.40108 222.49078,498.85533 222.64964,495.91357 221.71999,493.42144 220.40192,489.88806 216.44601,487.98004 214.31032,484.87183 212.48121,482.20981 212.17688,478.45406 209.75053,476.32221 205.09896,472.23523 197.43859,466.20375 192.3714,469.76242 Z"
       id="path836"
       inkscape:connector-curvature="0"
       sodipodi:nodetypes="aaaaaaaaa" />
    <path
       style="fill:#000000;stroke:none;stroke-width:1px;stroke-linecap:butt;stroke-linejoin:miter;stroke-opacity:1;fill-opacity:1"
       d="M 120.83454,293.93045 C 128.74501,289.00301 137.12506,303.00121 145.05336,307.89991 150.76932,311.43166 158.07212,313.46846 161.87269,319.00932 165.39295,324.14152 165.44614,331.03895 165.86251,337.24849 166.48742,346.56811 164.493,355.88115 163.58261,365.17723 162.93027,371.83835 161.97089,378.46678 161.30272,385.12633 159.76065,400.49583 158.60626,415.90183 157.3129,431.29425 156.53081,440.602 156.35469,449.97643 155.033,459.22299 153.96364,466.70425 157.44394,478.51244 150.47321,481.43162 146.29637,483.18079 141.11581,478.08403 139.07372,474.04232 136.24122,468.43624 139.93271,461.50835 140.20349,455.23317 141.45708,426.18149 142.80367,397.10416 142.49357,368.0271 142.40838,360.03887 142.51805,351.99154 141.35362,344.08818 140.2118,336.3383 139.51346,328.10596 135.65388,321.28921 133.13861,316.84677 127.68642,314.68705 124.82436,310.4597 123.20198,308.06339 122.08039,305.29389 121.40452,302.48006 120.73745,299.70285 118.41021,295.44057 120.83454,293.93045 Z"
       id="path838"
       inkscape:connector-curvature="0"
       sodipodi:nodetypes="aaaaaaaaaaaaaaaaa" />
    <path
       style="fill:#000000;stroke:none;stroke-width:1px;stroke-linecap:butt;stroke-linejoin:miter;stroke-opacity:1;fill-opacity:1"
       d="M 299.23649,319.00932 C 303.12282,316.79708 307.89372,321.44001 312.3459,321.85919 319.53627,322.53618 326.87202,322.42127 334.00492,321.28921 345.55306,319.45641 356.69785,315.44871 367.6334,311.30957 371.84817,309.71427 375.4221,305.0434 379.89294,305.60983 387.33646,306.55289 392.34886,314.24558 397.29242,319.88973 399.42166,322.32072 402.46697,324.89795 402.40183,328.12891 402.25844,335.24137 394.56265,340.00601 390.43237,345.79811 388.77776,348.11846 386.78273,350.20244 385.3026,352.6378 379.38864,362.3684 378.29656,375.13317 370.48327,383.41641 367.79886,386.26228 364.12807,388.86869 360.22374,389.11615 359.20265,389.18087 358.18258,388.60292 357.37386,387.9762 351.78699,383.64668 346.19626,377.81263 344.83443,370.87698 344.6835,370.1083 344.8181,369.1166 345.4044,368.59708 347.69727,366.56535 352.35775,369.62337 354.52399,367.45713 357.77334,364.20778 355.69519,358.34134 356.23392,353.77775 356.83901,348.652 361.1146,342.46099 357.94384,338.38844 354.52699,333.99981 346.88157,335.08535 341.41458,336.10854 337.56919,336.82823 334.8421,340.50037 331.15505,341.80829 328.06401,342.90479 324.74414,343.60368 321.46549,343.51821 318.93155,343.45215 316.29122,343.00336 314.05582,341.80829 310.14431,339.71716 307.6108,335.71289 304.36626,332.6887 301.90744,330.39687 297.79409,329.10429 296.95659,325.84901 296.3578,323.52158 297.14794,320.1982 299.23649,319.00932 Z"
       id="path840"
       inkscape:connector-curvature="0"
       sodipodi:nodetypes="aaaaaaaaaaaaaaaaaaaaaaaa" />
    <path
       style="fill:#000000;stroke:none;stroke-width:1px;stroke-linecap:butt;stroke-linejoin:miter;stroke-opacity:1;fill-opacity:1"
       d="M 294.6767,408.78535 C 299.18507,406.76429 304.58,409.55796 309.49603,409.06525 311.23893,408.89057 312.92056,408.32579 314.62579,407.9253 324.2533,405.66418 333.78425,403.00054 343.42477,400.79553 354.68004,398.22119 365.98588,391.48984 377.32296,393.67595 378.66823,393.93536 379.83565,394.92915 380.74281,395.95584 382.9942,398.50388 386.50775,401.89214 385.31278,405.07543 383.72455,409.30633 377.24314,409.61112 372.76317,410.2052 369.72624,410.60792 366.68608,408.707 363.64358,409.06525 360.41928,409.4449 357.33047,410.85295 354.52399,412.4851 351.95853,413.97708 350.4748,417.17454 347.6843,418.18484 347.14837,418.37887 346.53853,418.26608 345.97438,418.18484 342.6421,417.70496 339.64852,415.19386 336.28482,415.33497 326.30865,415.75349 318.33178,425.7347 308.35608,426.16448 303.6107,426.36892 298.82597,424.48636 294.6767,422.17466 292.44379,420.93063 289.72377,419.48943 288.97695,417.04489 288.74807,416.29572 289.18727,415.4609 289.54693,414.76499 290.75268,412.43198 292.28031,409.85963 294.6767,408.78535 Z"
       id="path842"
       inkscape:connector-curvature="0"
       sodipodi:nodetypes="aaaaaaaaaaaaaaaaaa" />
    <path
       style="fill:#000000;stroke:none;stroke-width:1px;stroke-linecap:butt;stroke-linejoin:miter;stroke-opacity:1;fill-opacity:1"
       d="M 290.69706,452.3833 C 295.32223,448.69796 302.53558,451.72008 308.35608,450.67337 317.83566,448.96863 327.04336,445.9774 336.28482,443.26371 344.90392,440.73277 352.95067,434.9743 361.93366,434.99399 367.13123,435.00538 374.23941,435.29449 376.75299,439.84386 378.64716,443.27216 376.95658,448.79029 373.90312,451.24335 368.56894,455.52868 360.13378,450.69151 353.38404,451.81332 344.55138,453.28131 336.24753,457.01607 327.7352,459.79296 319.90981,462.34576 312.59607,467.61857 304.36626,467.7726 298.41984,467.8839 290.01683,467.92173 287.27721,462.64283 285.61669,459.44322 287.87777,454.62972 290.69706,452.3833 Z"
       id="path844"
       inkscape:connector-curvature="0"
       sodipodi:nodetypes="aaaaaaaaaaa" />
    <path
       style="fill:#000000;stroke:none;stroke-width:1px;stroke-linecap:butt;stroke-linejoin:miter;stroke-opacity:1;fill-opacity:1"
       d="M 245.95917,502.84129 C 245.81507,492.84112 264.03916,494.11652 273.58765,491.14155 285.25606,487.50609 297.42486,485.64371 309.49603,483.73188 323.09015,481.57885 336.83709,480.52322 350.53417,479.17209 361.54112,478.08632 372.59575,477.50516 383.59268,476.32221 389.49718,475.68706 395.36853,473.31092 401.26188,474.04232 407.94925,474.87226 414.6026,477.51422 420.07103,481.45198 426.30905,485.94391 437.77662,491.99659 434.89036,499.12118 432.81056,504.25505 423.88726,501.21049 418.36111,500.83111 408.79893,500.17465 399.89696,495.50397 390.43237,493.99142 380.64779,492.42773 370.70178,491.82672 360.79371,491.71152 350.13965,491.58765 339.46065,492.20841 328.87515,493.42144 319.09984,494.54163 309.23091,495.72435 299.80646,498.55121 292.47056,500.75161 285.49035,504.09524 278.71742,507.6708 274.94173,509.66406 272.157,514.44995 267.8879,514.51049 261.92568,514.59504 257.85908,508.00252 252.4986,505.3909 250.39532,504.36618 245.99288,505.18067 245.95917,502.84129 Z"
       id="path846"
       inkscape:connector-curvature="0"
       sodipodi:nodetypes="aaaaaaaaaaaaaaaaa" />
    <path
       style="fill:#000000;stroke:none;stroke-width:1px;stroke-linecap:butt;stroke-linejoin:miter;stroke-opacity:1;fill-opacity:1"
       d="M 239.95917,383.41641 C 244.07933,381.15467 248.94189,387.01663 253.63855,386.83625 262.04363,386.51345 269.41088,380.87065 277.57747,378.85661 286.73591,376.59797 296.20221,375.85055 305.50621,374.29682 313.30064,372.99518 321.08932,371.6591 328.87515,370.307 360.61953,364.79424 391.27078,353.8314 424.06085,353.49785 438.8425,353.34749 453.32597,357.65087 465.099,370.307 467.61156,373.00802 461.69875,377.10826 458.82928,379.42659 456.11229,381.62173 452.61838,383.10079 449.13972,383.41641 440.04759,384.24135 431.26149,379.70397 422.35093,377.71667 416.63843,376.44263 411.0852,374.20235 405.2517,373.72685 399.55819,373.26276 393.85574,374.54408 388.15247,374.86679 371.82167,375.79084 355.34808,374.98454 339.13469,377.14669 326.98084,378.76748 314.68925,380.77387 303.22631,385.12633 297.74022,387.20939 292.72757,390.43271 287.837,393.67595 283.21256,396.74271 278.83191,400.20116 274.7276,403.93548 271.04961,407.28192 269.03597,412.80019 264.46806,414.76499 262.72275,415.5157 260.50985,415.52442 258.76832,414.76499 255.44112,413.3141 253.23678,409.89147 251.35865,406.78535 249.58642,403.85437 249.47057,400.15931 247.93881,397.09579 247.63246,396.48309 247.30121,395.8516 246.79886,395.38587 244.24117,393.01462 238.93507,393.50996 237.67927,390.2561 236.81398,388.01406 237.85249,384.57286 239.95917,383.41641 Z"
       id="path848"
       inkscape:connector-curvature="0"
       sodipodi:nodetypes="aaaaassaaaaaaaaaaaaaaaa" />
    <path
       style="fill:#000000;stroke:none;stroke-width:1px;stroke-linecap:butt;stroke-linejoin:miter;stroke-opacity:1;fill-opacity:1"
       d="M 287.56739,232.7476 C 283.76409,237.49109 291.8202,244.24281 295.11509,249.35255 298.01379,253.84788 302.14391,257.41722 305.68187,261.42887 307.68573,263.70102 310.73228,265.3578 311.72003,268.2218 314.35006,275.8476 310.00475,284.31048 310.21049,292.37444 310.7207,312.37211 317.79604,332.0128 317.00342,352.00127 316.587,362.50274 309.38826,372.55611 310.96526,382.94684 311.52265,386.61946 315.36704,389.1503 316.24865,392.75885 320.30939,409.37997 315.61968,426.97371 315.49388,444.08322 315.41064,455.40446 315.9993,466.73761 315.49388,478.04787 314.73836,494.95498 311.07139,511.69381 310.96526,528.61746 310.88298,541.73853 314.16872,554.74547 313.98434,567.8655 313.84925,577.47779 311.81325,586.971 310.96526,596.54677 310.43905,602.48893 308.53261,608.54328 309.68187,614.39694 311.25017,622.38495 312.38083,635.91584 320.51296,636.28527 328.37098,636.64225 330.71643,623.74103 332.85359,616.17079 334.83588,609.14913 332.93464,601.57812 332.85359,594.28246 332.72779,582.95881 332.78854,571.62112 332.09882,560.3178 331.17484,545.17527 328.32591,530.18346 327.5702,515.0316 326.79318,499.45239 327.83007,483.83228 327.5702,468.23586 327.31858,453.13417 325.45795,438.04141 326.06066,422.94966 326.50524,411.81733 329.20453,400.86315 329.83451,389.73977 330.43201,379.1899 331.76355,368.42864 329.83451,358.03943 329.19478,354.59407 326.58538,351.69216 326.06066,348.22742 323.79529,333.26908 328.18579,318.04369 329.07974,302.94122 329.94313,288.35502 335.56339,273.15383 331.34405,259.16456 328.90296,251.0711 323.36403,243.35023 316.24865,238.78576 308.02525,233.5105 293.67898,225.12519 287.56739,232.7476 Z"
       id="path850"
       inkscape:connector-curvature="0"
       sodipodi:nodetypes="aaaaaaaaaaaaaaaaaaaaaaaaaaaa" />
  </g>
</svg>
