<?xml version="1.0" encoding="UTF-8" standalone="no"?>
<!-- Created with Inkscape (http://www.inkscape.org/) -->

<svg
   xmlns:dc="http://purl.org/dc/elements/1.1/"
   xmlns:cc="http://creativecommons.org/ns#"
   xmlns:rdf="http://www.w3.org/1999/02/22-rdf-syntax-ns#"
   xmlns:svg="http://www.w3.org/2000/svg"
   xmlns="http://www.w3.org/2000/svg"
   xmlns:sodipodi="http://sodipodi.sourceforge.net/DTD/sodipodi-0.dtd"
   xmlns:inkscape="http://www.inkscape.org/namespaces/inkscape"
   width="512"
   height="512"
   viewBox="0 0 512 512"
   version="1.1"
   id="svg8"
   inkscape:version="0.92.4 (5da689c313, 2019-01-14)"
   sodipodi:docname="傍.svg">
  <defs
     id="defs2" />
  <sodipodi:namedview
     id="base"
     pagecolor="#ffffff"
     bordercolor="#666666"
     borderopacity="1.0"
     inkscape:pageopacity="0.0"
     inkscape:pageshadow="2"
     inkscape:zoom="0.99"
     inkscape:cx="282.25472"
     inkscape:cy="249.60869"
     inkscape:document-units="px"
     inkscape:current-layer="layer1"
     showgrid="false"
     units="px"
     inkscape:window-width="1366"
     inkscape:window-height="705"
     inkscape:window-x="-8"
     inkscape:window-y="-8"
     inkscape:window-maximized="1" />
  <metadata
     id="metadata5">
    <rdf:RDF>
      <cc:Work
         rdf:about="">
        <dc:format>image/svg+xml</dc:format>
        <dc:type
           rdf:resource="http://purl.org/dc/dcmitype/StillImage" />
        <dc:title></dc:title>
      </cc:Work>
    </rdf:RDF>
  </metadata>
  <g
     inkscape:label="圖層 1"
     inkscape:groupmode="layer"
     id="layer1"
     transform="translate(0,-161.53332)">
    <path
       style="fill:#000000;fill-opacity:1;stroke:none;stroke-width:1px;stroke-linecap:butt;stroke-linejoin:miter;stroke-opacity:1"
       d="M 149.50258,234.13727 C 152.7785,230.73082 163.64471,233.12711 163.64471,233.12711 L 177.78685,241.20834 C 177.78685,241.20834 205.26661,257.81277 205.56605,271.51291 205.83501,283.8186 190.19555,290.77071 181.82745,299.79719 167.74379,314.98892 137.38075,343.23374 137.38075,343.23374 137.38075,343.23374 119.36403,363.57874 111.11678,357.88096 107.33602,355.26894 113.13709,344.24389 113.13709,344.24389 113.13709,344.24389 122.94314,330.64038 128.28938,321.01039 138.09217,303.35298 155.4726,283.53726 155.05842,261.91647 154.97192,257.39976 149.9644,254.20749 148.9975,249.79464 147.87987,244.69381 145.883,237.90107 149.50258,234.13727 Z"
       id="path32"
       inkscape:connector-curvature="0"
       sodipodi:nodetypes="accaacacsaaa" />
    <path
       style="fill:#000000;fill-opacity:1;stroke:none;stroke-width:1px;stroke-linecap:butt;stroke-linejoin:miter;stroke-opacity:1"
       d="M 141.92643,537.18303 C 141.92643,551.47768 144.95689,579.10436 133.84522,594.76173 122.73354,610.41909 120.71714,576.96949 119.70308,566.47745 119.09794,560.21623 123.42194,554.44249 124.75384,548.29471 129.12003,528.14122 134.35029,487.18048 134.35029,487.18048 L 139.90613,434.65255 143.94674,389.70076 V 389.70076 C 143.94674,389.70076 140.74856,378.15118 142.93659,373.03324 144.06363,370.39701 146.65668,367.12983 149.50258,367.4774 153.21318,367.93057 156.06857,376.56878 156.06857,376.56878 V 376.56878 L 157.5838,391.72106 156.06857,406.36828 153.54318,425.0561 152.53304,440.20838 152.02796,457.38098 144.19928,503.848 C 144.19928,503.848 141.92643,522.53582 141.92643,537.18303 Z"
       id="path34"
       inkscape:connector-curvature="0"
       sodipodi:nodetypes="ssaaccccaaccccccccs" />
    <path
       style="fill:#000000;fill-opacity:1;stroke:none;stroke-width:1px;stroke-linecap:butt;stroke-linejoin:miter;stroke-opacity:1"
       d="M 260.61149,213.59493 261.12443,223.02559 271.22596,236.15758 C 277.02157,239.85818 287.0973,243.93386 292.2391,249.07708 293.56107,250.39941 296.48073,253.36931 297.6965,254.64406 301.31719,258.44042 298.26868,260.22162 301.26843,262.57419 308.04416,267.8881 321.01923,269.79236 331.37743,255.63464 339.66386,252.09125 322.23866,233.6322 322.23866,233.6322 L 306.34454,222.99404 293.44931,218.47991 281.83256,215.44945 267.18535,212.41899 C 264.59947,212.21907 259.80367,212.09799 260.61149,213.59493 Z"
       id="path12"
       inkscape:connector-curvature="0"
       sodipodi:nodetypes="cccsssccccccc" />
    <path
       style="fill:#000000;fill-opacity:1;stroke:none;stroke-width:1px;stroke-linecap:butt;stroke-linejoin:miter;stroke-opacity:1"
       d="M 239.20705,282.98706 C 256.38767,289.59499 260.79295,287.39235 260.79295,287.39235 L 279.73568,283.42759 338.32599,268.00909 354.62555,262.72275 C 370.26589,250.99459 369.47309,254.32427 404.84581,259.19852 408.37004,259.63905 407.92952,264.04433 408.81057,266.24698 409.69163,268.44962 406.60793,275.05755 406.60793,275.05755 L 395.15419,273.29543 C 395.15419,273.29543 381.12826,269.98653 374.00881,270.21173 360.50841,270.63878 334.36123,278.58178 334.36123,278.58178 L 277.09251,294.00028 256.38766,305.89456 C 250.48638,313.63159 242.93,305.43872 230.39648,288.71394 231.41323,277.87315 238.27939,282.33686 239.20705,282.98706 Z"
       id="path14"
       inkscape:connector-curvature="0"
       sodipodi:nodetypes="cccccccccaccccc" />
    <path
       style="fill:#000000;fill-opacity:1;stroke:none;stroke-width:1px;stroke-linecap:butt;stroke-linejoin:miter;stroke-opacity:1"
       d="M 251.54185,312.50248 C 248.35746,314.12927 248.01762,322.63464 248.01762,322.63464 L 251.10132,334.52891 257.70925,348.1853 C 266.68869,363.24894 285.28099,368.94023 287.22466,348.62583 288.54625,331.88574 281.49779,327.92098 281.49779,327.92098 281.49779,327.92098 275.77093,323.07517 269.163,317.78883 262.55507,312.50248 257.00284,309.71266 251.54185,312.50248 Z"
       id="path20"
       inkscape:connector-curvature="0"
       sodipodi:nodetypes="acccccsa" />
    <path
       style="fill:#000000;fill-opacity:1;stroke:none;stroke-width:1px;stroke-linecap:butt;stroke-linejoin:miter;stroke-opacity:1"
       d="M 326.43172,285.63024 C 320.93366,283.91706 312.95708,286.3388 310.13216,291.35711 307.33492,296.32624 313.65639,308.0972 313.65639,308.0972 313.65639,308.0972 315.26358,316.30674 314.97798,320.432 314.30892,330.09605 306.1674,347.30425 307.92952,348.62583 309.69163,349.94742 318.06167,349.06636 318.06167,349.06636 318.06167,349.06636 325.77584,347.19195 328.63436,344.66107 333.31179,340.51977 337.88546,328.36151 337.88546,328.36151 337.88546,328.36151 343.74534,319.33478 343.61233,314.2646 343.47624,309.07678 337.00441,300.16768 337.00441,300.16768 337.00441,300.16768 332.15228,287.41274 326.43172,285.63024 Z"
       id="path22"
       inkscape:connector-curvature="0"
       sodipodi:nodetypes="aacaccacaca" />
    <path
       style="fill:#000000;fill-opacity:1;stroke:none;stroke-width:1px;stroke-linecap:butt;stroke-linejoin:miter;stroke-opacity:1"
       d="M 195.59471,361.84169 C 191.30086,366.36043 200.44053,379.90336 200.44053,379.90336 200.44053,379.90336 203.96475,385.1897 196.47577,401.92979 188.98678,418.66988 186.63872,418.28096 185.46256,427.48046 184.72774,433.22792 188.10573,444.66107 188.10573,444.66107 188.10573,444.66107 189.85208,450.93078 192.51101,451.70953 198.43649,453.44498 209.2511,443.78002 209.2511,443.78002 209.2511,443.78002 212.3348,438.49367 214.09692,432.7668 215.85903,427.03993 221.14537,401.9298 223.78855,394.44081 223.78855,394.44081 225.73931,385.64983 224.22907,381.66548 221.43113,374.28388 207.92952,364.48486 207.92952,364.48486 207.92952,364.48486 198.49124,358.79346 195.59471,361.84169 Z"
       id="path24"
       inkscape:connector-curvature="0"
       sodipodi:nodetypes="acsacacccaca" />
    <path
       style="fill:#000000;fill-opacity:1;stroke:none;stroke-width:1px;stroke-linecap:butt;stroke-linejoin:miter;stroke-opacity:1"
       d="M 228.19383,356.99587 C 224.96293,359.05112 229.07489,368.44962 229.07489,368.44962 L 230.837,378.58178 233.03965,383.42759 C 233.03965,383.42759 237.63793,385.39402 240.08811,385.63024 242.73527,385.88546 248.01762,384.74918 248.01762,384.74918 248.01762,384.74918 251.20334,380.80354 253.30396,379.46284 258.70794,376.01381 271.36564,372.85491 271.36564,372.85491 L 299.11894,362.72275 C 299.11894,362.72275 319.76774,354.7435 330.39647,351.70954 344.13457,347.788 372.2467,342.45843 372.2467,342.45843 L 403.96476,339.37473 C 403.96476,339.37473 411.45374,338.49367 417.62115,338.9342 423.78855,339.37473 433.48018,342.89896 433.48018,345.54213 433.48018,348.1853 434.36123,356.99588 434.36123,356.99588 434.36123,356.99588 431.85635,366.04369 433.9207,369.77121 435.48259,372.59146 439.15905,373.85169 442.29075,374.61702 445.43218,375.38474 446.69604,374.61702 451.98238,374.17649 457.26872,373.73596 461.05644,376.52653 463.87665,373.73596 466.07112,371.56454 464.31718,364.48486 464.31718,364.48486 464.31718,364.48486 465.01078,358.38731 463.87665,355.67429 462.03274,351.26333 454.18502,345.1016 454.18502,345.1016 L 444.05286,331.88574 426.87225,320.432 C 426.87225,320.432 417.62115,315.58618 414.97797,316.46724 412.3348,317.3483 398.23789,328.80204 398.23789,328.80204 L 348.45815,336.29103 C 348.45815,336.29103 330.34358,343.5104 307.51978,350.42405 302.64437,351.90088 297.11356,351.16112 291.93905,352.5367 272.88954,357.60079 253.13917,363.68441 238.326,362.72275 232.99205,362.37647 231.46721,354.9136 228.19383,356.99587 Z"
       id="path26"
       inkscape:connector-curvature="0"
       sodipodi:nodetypes="acccacaccaccsscaasacaccccccsssa" />
    <path
       style="fill:#000000;fill-opacity:1;stroke:none;stroke-width:1px;stroke-linecap:butt;stroke-linejoin:miter;stroke-opacity:1"
       d="M 274.00881,384.30865 C 271.24953,389.16093 281.4978,399.28662 281.4978,399.28662 L 290.30837,408.53773 C 290.30837,408.53773 297.18615,411.53291 300.44053,413.38354 302.74173,414.69213 304.45262,417.26966 307.04846,417.78883 L 311.45374,418.66988 322.90749,419.99147 C 322.90749,419.99147 329.12094,415.82731 329.95595,412.50248 330.91903,408.6677 326.87225,401.04874 326.87225,401.04874 L 317.18062,391.79764 303.52423,384.30865 292.07048,382.98706 C 292.07048,382.98706 276.99286,379.06111 274.00881,384.30865 Z"
       id="path28"
       inkscape:connector-curvature="0"
       sodipodi:nodetypes="accasccacccca" />
    <path
       style="fill:#000000;fill-opacity:1;stroke:none;stroke-width:1px;stroke-linecap:butt;stroke-linejoin:miter;stroke-opacity:1"
       d="M 230.837,453.03112 C 230.837,453.03112 232.44689,461.89366 235.68282,464.48486 236.96434,465.51105 236.12335,464.48486 240.52863,465.36592 244.93392,466.24698 254.62555,460.07958 254.62555,460.07958 L 273.56828,449.50689 316.74009,439.37473 362.11454,427.92099 C 362.11454,427.92099 365.19824,426.15887 374.44934,424.83728 383.70044,423.5157 406.87059,435.31975 423.34802,433.64786 426.49495,433.32855 430.68166,432.92074 432.15859,430.12363 432.79072,428.92645 431.96168,427.32711 431.27753,426.15887 427.49373,419.69774 414.53745,411.1809 414.53745,411.1809 414.53745,411.1809 407.03019,403.9874 402.20264,402.81086 393.72625,400.74504 377.97356,405.45402 376.21145,405.89455 375.4839,406.07644 355.90667,414.89931 333.16924,421.57572 300.83692,431.0695 262.11454,439.37473 262.11454,439.37473 262.11454,439.37473 255.11005,440.95481 251.54185,441.13684 245.7375,441.43295 238.83949,436.6147 234.14097,440.03552 230.52754,442.66632 230.837,453.03112 230.837,453.03112 Z"
       id="path30"
       inkscape:connector-curvature="0"
       sodipodi:nodetypes="cascccccaaacacscaac" />
    <path
       style="fill:#000000;fill-opacity:1;stroke:none;stroke-width:1px;stroke-linecap:butt;stroke-linejoin:miter;stroke-opacity:1"
       d="M 318.94273,432.32627 C 316.21388,432.73255 315.4185,439.81526 315.4185,439.81526 315.4185,439.81526 313.80134,446.02781 312.77533,449.06636 311.61507,452.50251 308.81057,459.19852 308.81057,459.19852 L 301.76211,472.41438 296.47577,480.78442 269.60352,511.62143 237.00441,543.33949 201.76211,569.77121 206.1674,572.85491 C 206.1674,572.85491 222.90749,567.12803 230.39648,565.36592 237.88546,563.6038 274.00881,538.05314 274.00881,538.05314 L 302.20264,509.85931 C 302.20264,509.85931 313.83348,491.28332 318.06167,481.22495 322.04051,471.75978 326.87225,451.70953 326.87225,451.70953 326.87225,451.70953 329.07489,445.98266 327.31278,441.57737 325.55066,437.17209 323.05593,431.71388 318.94273,432.32627 Z"
       id="path33"
       inkscape:connector-curvature="0"
       sodipodi:nodetypes="acaccccccccccacca" />
    <path
       style="fill:#000000;fill-opacity:1;stroke:none;stroke-width:1px;stroke-linecap:butt;stroke-linejoin:miter;stroke-opacity:1"
       d="M 314.97797,465.80645 C 318.70363,461.10455 331.71806,459.19852 331.71806,459.19852 L 348.45815,461.40116 357.70925,470.21173 C 357.70925,470.21173 362.41232,475.9594 362.99559,479.46284 364.14961,486.39444 359.03084,500.16768 359.03084,500.16768 L 335.24229,559.63905 314.53744,605.0135 311.89427,608.53773 C 311.01322,610.29984 308.73083,610.65161 307.04846,610.29984 302.88016,609.42829 297.79735,601.48927 297.79735,601.48927 L 297.35683,586.51129 289.86784,565.36592 287.6652,556.55535 V 553.91217 C 287.6652,553.91217 305.33546,561.93311 312.77533,557.87693 329.68835,548.65606 336.12335,505.0135 336.12335,505.0135 L 344.05286,486.07076 C 344.05286,486.07076 341.85022,497.08398 344.05286,486.07076 346.2555,475.05755 325.55066,478.14125 325.55066,478.14125 325.55066,478.14125 325.99119,478.14125 322.02643,480.34389 318.06167,482.54654 314.99977,486.03938 312.33481,483.86812 307.61759,480.02479 311.19912,470.57548 314.97797,465.80645 Z"
       id="path35"
       inkscape:connector-curvature="0"
       sodipodi:nodetypes="acccaccccacccccaccsccaa" />
  </g>
</svg>
