<?xml version="1.0" encoding="UTF-8" standalone="no"?>
<!-- Created with Inkscape (http://www.inkscape.org/) -->

<svg
   xmlns:dc="http://purl.org/dc/elements/1.1/"
   xmlns:cc="http://creativecommons.org/ns#"
   xmlns:rdf="http://www.w3.org/1999/02/22-rdf-syntax-ns#"
   xmlns:svg="http://www.w3.org/2000/svg"
   xmlns="http://www.w3.org/2000/svg"
   xmlns:sodipodi="http://sodipodi.sourceforge.net/DTD/sodipodi-0.dtd"
   xmlns:inkscape="http://www.inkscape.org/namespaces/inkscape"
   width="1935.1182"
   height="1935.1182"
   viewBox="0 0 512 512"
   version="1.1"
   id="svg8"
   sodipodi:docname="啓.svg"
   inkscape:version="0.92.4 (5da689c313, 2019-01-14)">
  <defs
     id="defs2" />
  <sodipodi:namedview
     id="base"
     pagecolor="#ffffff"
     bordercolor="#666666"
     borderopacity="1.0"
     inkscape:pageopacity="0.0"
     inkscape:pageshadow="2"
     inkscape:zoom="0.22"
     inkscape:cx="506.10314"
     inkscape:cy="959.30645"
     inkscape:document-units="px"
     inkscape:current-layer="layer1"
     showgrid="false"
     inkscape:window-width="1366"
     inkscape:window-height="705"
     inkscape:window-x="-8"
     inkscape:window-y="-8"
     inkscape:window-maximized="1"
     units="px" />
  <metadata
     id="metadata5">
    <rdf:RDF>
      <cc:Work
         rdf:about="">
        <dc:format>image/svg+xml</dc:format>
        <dc:type
           rdf:resource="http://purl.org/dc/dcmitype/StillImage" />
        <dc:title></dc:title>
      </cc:Work>
    </rdf:RDF>
  </metadata>
  <g
     inkscape:label="圖層 1"
     inkscape:groupmode="layer"
     id="layer1"
     transform="translate(0,215)">
    <path
       style="fill:#000000;fill-opacity:1;stroke:none;stroke-width:0.99627393px;stroke-linecap:butt;stroke-linejoin:miter;stroke-opacity:1"
       d="M 129.80186,-86.624534 C 133.64886,-91.633356 142.26515,-83.824187 148.56194,-84.171808 161.13795,-84.866071 185.26645,-93.165212 185.26645,-93.165212 185.26645,-93.165212 193.46139,-95.758102 195.86998,-93.165212 198.47047,-90.36577 196.8071,-85.116806 195.05433,-81.719045 190.52929,-72.947197 180.38299,-68.437584 172.21596,-62.9147 166.56774,-59.095126 161.03754,-52.299378 154.27153,-53.103721 146.62543,-54.012679 137.14276,-68.637765 137.14276,-68.637765 137.14276,-68.637765 125.8595,-81.49157 129.80186,-86.624534 Z"
       id="path826"
       inkscape:connector-curvature="0"
       sodipodi:nodetypes="aacaaaaca" />
    <path
       style="fill:#000000;fill-opacity:1;stroke:none;stroke-width:0.99627393px;stroke-linecap:butt;stroke-linejoin:miter;stroke-opacity:1"
       d="M 109.23821,-49.052187 C 104.17599,-47.177158 106.14784,-33.122003 106.14784,-33.122003 L 116.75137,-12.68247 120.01398,-0.41876593 109.41046,31.466897 99.622583,80.521753 C 99.622583,80.521753 95.167649,99.791903 90.427462,108.31954 86.977199,114.52659 76.784223,124.67116 76.784223,124.67116 L 61.286761,150.01618 31.107493,187.62491 20.50397,199.07104 C 20.50397,199.07104 15.521754,206.27635 18.05701,208.06444 26.199635,213.80741 34.589921,196.92081 42.526673,190.89525 48.687434,186.21799 60.471107,176.17878 60.471107,176.17878 L 84.125125,152.46891 C 84.125125,152.46891 93.247391,134.38446 97.200952,125.06726 102.04872,113.64266 107.03676,102.18183 110.22611,90.18548 114.11548,75.556134 117.56702,45.36579 117.56702,45.36579 117.56702,45.36579 136.05105,16.756611 138.31731,0.39880936 139.37754,-7.2538717 134.69579,-22.493487 134.69579,-22.493487 L 120.01398,-40.480256 C 120.01398,-40.480256 113.53954,-50.645341 109.23821,-49.052187 Z"
       id="path828"
       inkscape:connector-curvature="0"
       sodipodi:nodetypes="acccccaccccaaccaacacca" />
    <path
       style="fill:#000000;fill-opacity:1;stroke:none;stroke-width:0.99627393px;stroke-linecap:butt;stroke-linejoin:miter;stroke-opacity:1"
       d="M 106.14784,-52.286146 Z"
       id="path830"
       inkscape:connector-curvature="0" />
    <path
       style="fill:#000000;fill-opacity:1;stroke:none;stroke-width:0.99627393px;stroke-linecap:butt;stroke-linejoin:miter;stroke-opacity:1"
       d="M 153.95236,-30.917298 186.09225,-37.732198 C 186.09225,-37.732198 199.6181,-38.493677 205.87064,-40.829838 211.33432,-42.871231 215.09147,-51.705885 220.70442,-50.122872 224.69561,-48.997222 226.2671,-38.971246 226.2671,-38.971246 L 222.55865,-23.482894 C 222.55865,-23.482894 219.88722,-19.043438 217.61406,-18.526624 213.9919,-17.703092 210.46174,-23.841108 207.10678,-22.243845 199.39544,-18.572503 198.45374,1.9179605 198.45374,1.9179605 198.45374,1.9179605 195.23424,7.6911647 192.89107,6.8742303 189.53194,5.7030774 191.03684,-3.6578147 191.03684,-3.6578147 V -3.6578147 C 191.03684,-3.6578147 198.45374,-13.570354 194.74529,-20.385216 191.03684,-27.200115 177.4392,-17.907118 177.4392,-17.907118 L 154.57044,-4.2773579 C 154.57044,-4.2773579 150.96058,0.26000214 148.38969,1.2984551 142.65372,3.6153519 135.12751,5.1450211 129.84745,1.9179605 126.14927,-0.34227493 123.90006,-5.5286963 124.28478,-9.8531703 124.75704,-15.161548 133.5559,-22.86335 133.5559,-22.86335 L 153.95236,-30.917298"
       id="path832"
       inkscape:connector-curvature="0"
       sodipodi:nodetypes="ccaaccaacacccccaaacc" />
    <path
       style="fill:#000000;fill-opacity:1;stroke:none;stroke-width:0.99627393px;stroke-linecap:butt;stroke-linejoin:miter;stroke-opacity:1"
       d="M 146.53547,34.753258 134.17398,36.611849 C 134.17398,36.611849 125.37268,35.512475 123.04863,32.275123 120.51874,28.751033 118.96105,21.864053 122.43055,19.264905 126.44923,16.254349 131.65055,24.684192 136.64628,24.221175 139.95421,23.914683 145.29932,19.264905 145.29932,19.264905 L 177.4392,10.591452 198.45374,1.9179605 V 1.9179605 C 198.45374,1.9179605 210.33442,6.4318718 209.57908,11.210995 209.05827,14.506177 200.30796,14.928178 200.30796,14.928178 L 180.52958,17.406313 168.78615,19.884448 146.53547,34.753258"
       id="path847"
       inkscape:connector-curvature="0"
       sodipodi:nodetypes="ccaaaccccacccc" />
    <path
       style="fill:#000000;fill-opacity:1;stroke:none;stroke-width:0.99627393px;stroke-linecap:butt;stroke-linejoin:miter;stroke-opacity:1"
       d="M 255.31643,-91.631622 C 251.88228,-86.69194 260.57268,-80.723041 262.11521,-74.904183 262.91584,-71.883901 261.60262,-68.198385 263.35137,-65.611187 265.47275,-62.472643 273.24051,-60.035374 273.24051,-60.035374 L 292.40071,-66.850235 310.32475,-79.24091 C 310.32475,-79.24091 321.45005,-87.294858 327.63074,-89.772993 333.81148,-92.251128 333.81148,-86.675315 333.81148,-86.675315 L 327.0127,-71.806543 312.17899,-44.547059 289.31034,-15.428983 272.00435,3.77659 225.64901,32.275123 213.90561,40.329071 214.52368,43.426711 226.2671,41.568119 252.22607,30.416531 270.15015,19.884448 302.28985,-7.994579 323.92234,-34.014976 337.51988,-58.176782 C 337.51988,-58.176782 343.09077,-75.078578 348.02711,-82.338588 349.17575,-84.027912 350.49938,-83.577674 352.35359,-86.675315 354.20784,-89.772993 356.68008,-97.82694 356.68008,-97.82694 356.68008,-97.82694 360.98468,-102.83184 361.00661,-105.88089 361.04835,-111.69982 352.97167,-121.3692 352.97167,-121.3692 352.97167,-121.3692 348.30176,-127.87286 344.93674,-127.56456 342.17648,-127.31167 339.37412,-121.3692 339.37412,-121.3692 L 333.81148,-110.83716 317.12356,-103.40275 273.85855,-91.012079 C 273.85855,-91.012079 258.85213,-96.717312 255.31643,-91.631622 Z"
       id="path849"
       inkscape:connector-curvature="0"
       sodipodi:nodetypes="aaaccccccccccccccccccaccacacccca" />
    <path
       style="fill:#000000;fill-opacity:1;stroke:none;stroke-width:0.99627393px;stroke-linecap:butt;stroke-linejoin:miter;stroke-opacity:1"
       d="M 246.04538,-61.894003 C 250.32523,-66.79953 265.20557,-58.238721 265.20557,-58.238721 L 280.12868,-50.131166 293.63683,-37.112654 C 293.63683,-37.112654 319.87269,-7.0959889 336.28376,3.77659 351.99123,14.183023 388.20183,26.079804 388.20183,26.079804 L 430.84896,40.329071 C 430.84896,40.329071 463.60693,49.002524 484.62145,53.339251 505.63598,57.676015 481.53107,62.632285 481.53107,62.632285 481.53107,62.632285 433.32126,75.022959 411.68865,72.544824 390.05604,70.066689 281.27541,-38.351703 281.27541,-38.351703 281.27541,-38.351703 271.22048,-46.421334 265.20557,-48.264243 260.47286,-49.714292 250.37187,-48.883786 250.37187,-48.883786 250.37187,-48.883786 243.04316,-58.452926 246.04538,-61.894003 Z"
       id="path851"
       inkscape:connector-curvature="0"
       sodipodi:nodetypes="acccaccccscaca" />
    <path
       style="fill:#000000;fill-opacity:1;stroke:none;stroke-width:0.99627393px;stroke-linecap:butt;stroke-linejoin:miter;stroke-opacity:1"
       d="M 156.42466,59.534607 C 148.63935,66.879703 166.16626,78.657243 170.02231,88.652682 173.28924,97.121054 175.04754,106.10948 178.05727,114.67308 181.95987,125.77713 187.15146,136.39826 191.03684,147.50838 194.52936,157.49515 194.0547,169.33896 200.30796,177.86554 203.11725,181.69612 207.31453,186.16231 212.05139,185.91945 215.55528,185.73963 218.97196,182.43924 220.08635,179.10459 222.16605,172.88141 217.07729,166.32784 215.75983,159.89905 213.4832,148.7898 211.46053,137.62754 209.57908,126.44425 207.98501,116.96913 207.92721,107.17297 205.25256,97.945679 203.68254,92.529219 202.26256,86.609328 198.45374,82.457364 187.65822,70.689248 168.0386,48.577356 156.42466,59.534607 Z"
       id="path853"
       inkscape:connector-curvature="0"
       sodipodi:nodetypes="aaaaaaaaaaaa" />
    <path
       style="fill:#000000;fill-opacity:1;stroke:none;stroke-width:0.99627393px;stroke-linecap:butt;stroke-linejoin:miter;stroke-opacity:1"
       d="M 220.08635,71.305738 C 229.36381,73.288811 239.13933,71.49574 248.51766,70.066689 259.68316,68.365453 273.14238,69.247795 281.27541,61.393198 284.84232,57.948389 283.2374,51.506558 285.60193,47.143932 288.04492,42.636543 290.5817,36.820965 295.49107,35.372801 300.86755,33.786847 307.00951,37.051079 311.56091,40.329071 318.15437,45.077846 323.2874,52.407825 325.77654,60.15415 326.97663,63.888901 327.6236,68.465845 325.77654,71.925281 323.67347,75.864172 317.48255,75.909373 314.65127,79.359686 303.73821,92.658714 304.76258,112.98342 294.87299,127.06376 291.34669,132.08434 287.3714,140.05663 281.27541,139.45443 275.41139,138.87515 272.38105,130.88597 270.76822,125.20517 266.6378,110.65665 285.58144,90.221257 274.47664,79.979191 271.71001,77.427544 266.90192,80.598847 263.35137,81.837821 254.90377,84.785608 248.13246,91.426188 239.86464,94.848038 237.09196,95.995592 234.21056,97.255149 231.21166,97.326136 227.61462,97.411335 223.65986,96.905077 220.70443,94.848038 216.4333,91.875257 213.21777,86.917102 212.05139,81.837821 211.02527,77.369374 209.86039,70.349054 213.90561,68.20806 215.94252,67.129985 217.83358,70.82421 220.08635,71.305738 Z"
       id="path855"
       inkscape:connector-curvature="0"
       sodipodi:nodetypes="aaaaaaaaaaaaaaaaaaaa" />
    <path
       style="fill:#000000;fill-opacity:1;stroke:none;stroke-width:0.99627393px;stroke-linecap:butt;stroke-linejoin:miter;stroke-opacity:1"
       d="M 203.39833,143.79116 C 207.67119,136.83425 226.88517,136.9763 226.88517,136.9763 226.88517,136.9763 245.42263,128.73925 255.31643,127.06376 268.31772,124.86199 294.87299,127.06376 294.87299,127.06376 294.87299,127.06376 309.38973,131.02809 309.70671,136.9763 309.96433,141.80812 298.5814,146.26929 298.5814,146.26929 L 270.15015,147.50838 C 270.15015,147.50838 245.72667,159.94203 232.44779,160.51856 223.11252,160.9239 205.25256,153.7037 205.25256,153.7037 205.25256,153.7037 201.64007,146.6539 203.39833,143.79116 Z"
       id="path857"
       inkscape:connector-curvature="0"
       sodipodi:nodetypes="acacaccaca" />
  </g>
</svg>
