<?xml version="1.0" encoding="UTF-8" standalone="no"?>
<!-- Created with Inkscape (http://www.inkscape.org/) -->

<svg
   xmlns:dc="http://purl.org/dc/elements/1.1/"
   xmlns:cc="http://creativecommons.org/ns#"
   xmlns:rdf="http://www.w3.org/1999/02/22-rdf-syntax-ns#"
   xmlns:svg="http://www.w3.org/2000/svg"
   xmlns="http://www.w3.org/2000/svg"
   xmlns:sodipodi="http://sodipodi.sourceforge.net/DTD/sodipodi-0.dtd"
   xmlns:inkscape="http://www.inkscape.org/namespaces/inkscape"
   width="512"
   height="512"
   viewBox="0 0 512 512"
   version="1.1"
   id="svg8"
   inkscape:version="0.92.4 (5da689c313, 2019-01-14)"
   sodipodi:docname="席.svg">
  <defs
     id="defs2" />
  <sodipodi:namedview
     id="base"
     pagecolor="#ffffff"
     bordercolor="#666666"
     borderopacity="1.0"
     inkscape:pageopacity="0.0"
     inkscape:pageshadow="2"
     inkscape:zoom="1.01"
     inkscape:cx="347.04573"
     inkscape:cy="213.80934"
     inkscape:document-units="px"
     inkscape:current-layer="layer1"
     showgrid="false"
     units="px"
     viewbox-width="512"
     inkscape:window-width="1366"
     inkscape:window-height="705"
     inkscape:window-x="-8"
     inkscape:window-y="-8"
     inkscape:window-maximized="1" />
  <metadata
     id="metadata5">
    <rdf:RDF>
      <cc:Work
         rdf:about="">
        <dc:format>image/svg+xml</dc:format>
        <dc:type
           rdf:resource="http://purl.org/dc/dcmitype/StillImage" />
        <dc:title></dc:title>
      </cc:Work>
    </rdf:RDF>
  </metadata>
  <g
     inkscape:label="圖層 1"
     inkscape:groupmode="layer"
     id="layer1"
     transform="translate(0,-161.53331)">
    <path
       style="fill:#000000;stroke:none;stroke-width:1px;stroke-linecap:butt;stroke-linejoin:miter;stroke-opacity:1;fill-opacity:1"
       d="M 206.62884,219.48839 C 207.58516,223.37869 212.76587,224.6395 215.85366,227.19185 220.30678,230.87278 225.99524,233.40649 229.26829,238.16745 233.3919,244.16562 231.15434,253.5832 236.12654,258.89916 238.33772,261.26321 241.88739,262.68289 245.12195,262.5577 248.75511,262.41708 252.41616,260.35523 254.87805,257.67965 257.84256,254.45782 259.12382,249.81682 259.7561,245.48453 260.40453,241.04161 260.97664,235.83899 258.53659,232.06989 254.48119,225.80559 245.52846,224.75283 239.02439,221.09429 232.52033,217.43576 226.56729,212.55045 219.5122,210.11868 216.81393,209.18863 213.53446,207.42548 211.04806,208.82671 207.69654,210.71548 205.71047,215.75252 206.62884,219.48839 Z"
       id="path826"
       inkscape:connector-curvature="0"
       sodipodi:nodetypes="aaaaaaaaaaaa" />
    <path
       style="fill:#000000;stroke:none;stroke-width:1px;stroke-linecap:butt;stroke-linejoin:miter;stroke-opacity:1;fill-opacity:1"
       d="M 136.63366,258.68182 C 140.05842,254.87115 146.50098,261.45552 151.48515,262.64222 L 161.30115,266.97936 172.27723,267.59271 C 178.40149,267.93494 183.35655,265.80231 189.12535,265.7138 250.42842,264.77331 293.60875,247.78738 345.54455,234.91945 346.55758,234.66846 347.47982,234.06326 348.51485,233.92935 358.6824,232.61391 369.18429,233.75633 379.20792,235.90955 381.96483,236.50177 386.3379,236.1732 387.12871,238.87984 388.51708,243.63167 383.12272,250.09063 378.21782,250.76103 378.21782,250.76103 351.81185,252.69773 338.61386,253.73133 322.43798,254.99816 306.10878,255.05524 290.09901,257.69173 272.64422,260.56619 255.54995,265.45408 238.61386,270.56301 228.22043,273.69829 218.25479,278.12816 207.92079,281.4541 195.49249,285.45408 170.29703,292.34519 170.29703,292.34519 V 292.34519 H 168.31683 C 157.02797,292.34519 148.3119,280.6182 141.58416,271.55311 138.84463,267.8618 133.56095,262.10078 136.63366,258.68182 Z"
       id="path814"
       inkscape:connector-curvature="0"
       sodipodi:nodetypes="ascsssaaasaaaaaasaa" />
    <path
       style="fill:#000000;stroke:none;stroke-width:1px;stroke-linecap:butt;stroke-linejoin:miter;stroke-opacity:1;fill-opacity:1"
       d="M 163.36634,291.35509 C 159.41314,290.94777 156.4441,296.41935 155.44554,300.26598 152.38739,312.04653 159.50716,324.36657 163.36634,335.90955 164.63079,339.69158 167.7105,342.8592 168.31683,346.80064 170.38945,360.27375 166.11514,374.04312 163.36634,387.3947 160.52329,401.20409 156.08875,414.6625 151.48515,427.98876 147.42293,439.74785 142.10361,451.03581 137.62376,462.64222 132.17129,476.76847 128.73841,491.7669 121.78218,505.21648 117.74506,513.02207 113.62642,521.3072 106.93069,526.99866 98.605772,534.07496 87.688397,537.70528 77.227723,540.86004 73.061109,542.11662 65.202923,538.53983 64.316832,542.80064 63.045258,548.91506 73.991419,552.04758 80.19802,552.74123 87.148024,553.51796 94.078766,549.53141 100,545.81054 105.53264,542.33386 109.50351,536.81806 113.86139,531.94915 120.90822,524.07597 127.97886,516.10348 133.66337,507.19668 136.43937,502.8471 138.4559,498.04921 140.55446,493.33529 145.31714,482.63697 149.70045,471.75087 153.46535,460.66202 159.64497,442.46106 164.0646,423.7092 169.30693,405.21648 175.29115,384.10669 187.31838,363.79093 187.12871,341.85014 187.09892,338.40462 185.39779,335.16418 184.15842,331.94915 181.39729,324.78655 177.60579,318.06469 174.25743,311.15707 173.2943,309.17014 172.36551,307.16493 171.32673,305.21648 168.82009,300.51474 168.66646,291.90119 163.36634,291.35509 Z"
       id="path816"
       inkscape:connector-curvature="0"
       sodipodi:nodetypes="aaaaaaaaaaaaaaaaaaaaaaa" />
    <path
       style="fill:#000000;stroke:none;stroke-width:1px;stroke-linecap:butt;stroke-linejoin:miter;stroke-opacity:1;fill-opacity:1"
       d="M 207.92079,326.00856 C 211.83044,323.80284 216.31912,329.59054 220.79208,329.96895 228.41989,330.61426 236.11089,328.74384 243.56436,326.99866 267.34367,321.4309 288.85137,307.65208 312.87129,303.23628 322.6145,301.44509 332.9845,299.76122 342.57426,302.24618 346.30002,303.21162 352.21696,304.34664 352.47525,308.18678 352.75889,312.40374 346.38602,314.28175 342.57426,316.10757 337.08589,318.73648 330.67519,318.6698 324.75248,320.06796 307.53581,324.13226 289.68981,326.36396 273.26733,332.93925 257.76219,339.14725 246.40288,357.44292 229.70297,357.69173 223.35536,357.7863 217.66715,352.94026 212.87129,348.78083 209.48011,345.83967 205.80669,342.29627 204.9505,337.88975 204.17187,333.88241 204.36532,328.01446 207.92079,326.00856 Z"
       id="path818"
       inkscape:connector-curvature="0"
       sodipodi:nodetypes="aaaaaaaaaaaaa" />
    <path
       style="fill:#000000;stroke:none;stroke-width:1px;stroke-linecap:butt;stroke-linejoin:miter;stroke-opacity:1;fill-opacity:1"
       d="M 225.74257,294.32539 C 221.04254,298.81664 231.37587,306.06202 233.66337,312.14717 237.1896,321.52755 240.04672,331.16275 242.57426,340.86004 245.38231,351.63352 243.66157,364.0566 249.50495,373.53331 251.72322,377.13087 255.23504,382.1373 259.40594,381.4541 264.82654,380.5662 266.88381,372.89534 268.31683,367.59272 270.29905,360.25791 268.78582,352.27695 267.32674,344.82044 265.44236,335.19049 262.91431,325.2317 257.42574,317.09767 252.97997,310.50906 246.18564,305.7121 239.60396,301.25608 235.3263,298.35997 229.47738,290.75649 225.74257,294.32539 Z"
       id="path820"
       inkscape:connector-curvature="0"
       sodipodi:nodetypes="aaaaaaaaaa" />
    <path
       style="fill:#000000;stroke:none;stroke-width:1px;stroke-linecap:butt;stroke-linejoin:miter;stroke-opacity:1;fill-opacity:1"
       d="M 289.10891,276.50361 C 289.80088,279.94299 294.80564,281.14027 296.0396,284.4244 297.8969,289.36752 296.20437,294.98802 296.0396,300.26598 295.70941,310.84249 294.95331,321.40531 294.05941,331.94915 293.2743,341.20974 291.58487,350.39134 291.08911,359.67192 290.89546,363.29711 288.00094,368.65441 291.08911,370.56301 295.48343,373.27885 301.25986,367.24687 304.9505,363.63232 310.01305,358.67414 312.36114,351.45452 314.85149,344.82044 317.35531,338.15048 318.02932,330.92874 319.80198,324.02836 322.27231,314.41214 328.27519,305.22856 327.72277,295.31549 327.52499,291.76643 325.92457,288.23582 323.76238,285.4145 320.75106,281.48521 315.68515,279.67178 311.88119,276.50361 307.3946,272.7669 304.8412,264.91984 299.0099,264.62242 295.71386,264.45431 293.01884,267.88564 291.08911,270.56301 289.86863,272.25633 288.69721,274.4573 289.10891,276.50361 Z"
       id="path822"
       inkscape:connector-curvature="0"
       sodipodi:nodetypes="aaaaaaaaaaaaaaa" />
    <path
       style="fill:#000000;stroke:none;stroke-width:1px;stroke-linecap:butt;stroke-linejoin:miter;stroke-opacity:1;fill-opacity:1"
       d="M 202.9703,379.4739 C 205.93943,375.38916 212.77442,382.6219 217.82178,382.464 228.06545,382.14354 237.66789,377.33014 247.52475,374.52341 261.78374,370.46318 275.64072,364.93266 290.09901,361.65212 298.56562,359.73107 307.2924,359.2035 315.84158,357.69173 319.15585,357.10566 322.39302,356.04079 325.74257,355.71153 330.34088,355.25952 335.76617,353.15837 339.60396,355.73133 344.63866,359.10673 349.90645,367.5061 346.53465,372.54321 345.8003,373.64024 343.89358,372.58933 342.57426,372.54321 337.94532,372.38139 333.34388,371.48921 328.71287,371.57291 319.42128,371.74084 310.11215,372.74857 300.9901,374.52341 296.2732,375.44116 291.77554,377.25972 287.12871,378.48381 277.60769,380.99189 267.55631,381.75496 258.41584,385.4145 251.68922,388.10761 245.6482,392.30966 239.60396,396.30559 236.85089,398.12569 234.17642,400.0838 231.68317,402.24618 231.33057,402.55199 231.1511,403.14656 230.69307,403.23628 224.01616,404.5442 216.95817,399.84495 211.88119,395.31549 207.36028,391.28213 199.40805,384.37462 202.9703,379.4739 Z"
       id="path824"
       inkscape:connector-curvature="0"
       sodipodi:nodetypes="aaaaaaaaaaaaaaaaaa" />
    <path
       style="fill:#000000;stroke:none;stroke-width:1px;stroke-linecap:butt;stroke-linejoin:miter;stroke-opacity:1;fill-opacity:1"
       d="M 214.85149,425.01846 C 211.18936,428.00473 219.37967,433.38042 220.79208,437.88975 222.49499,443.32655 223.41481,449.03479 223.76238,454.72143 224.14546,460.98904 222.93343,467.25607 222.77228,473.53331 222.63676,478.8121 221.35188,484.29455 222.79208,489.37489 224.16358,494.2129 225.6653,502.13198 230.69307,502.22638 235.44655,502.31563 236.86382,494.78549 238.61386,490.36499 241.56969,482.89875 242.38605,474.63046 242.57426,466.60262 242.70668,460.95414 242.46833,455.09403 240.57426,449.77093 239.13291,445.72016 236.59601,442.02402 233.66337,438.87984 228.35062,433.18387 220.88797,420.09603 214.85149,425.01846 Z"
       id="path827"
       inkscape:connector-curvature="0"
       sodipodi:nodetypes="aaaaaaaaaaa" />
    <path
       style="fill:#000000;stroke:none;stroke-width:1px;stroke-linecap:butt;stroke-linejoin:miter;stroke-opacity:1;fill-opacity:1"
       d="M 242.61386,422.04816 C 249.49461,417.2277 259.13132,418.94609 267.32673,417.09767 275.28655,415.30238 283.28771,413.59257 291.06931,411.13727 295.45672,409.75293 299.68255,407.89945 303.9604,406.20658 311.2548,403.31997 317.90392,397.60617 325.74257,397.29569 333.35172,396.9943 340.82585,400.58836 347.50495,404.24618 352.02731,406.72286 357.21473,409.46 359.40594,414.12737 362.07078,419.80358 359.40594,426.66862 359.40594,432.93925 V 462.64222 C 359.40594,470.56301 362.83714,479.26556 359.40594,486.4046 358.49051,488.30927 356.55799,490.57735 354.45545,490.36499 349.32627,489.84694 347.00753,483.01805 344.55446,478.48381 342.41938,474.53735 341.43181,470.02434 340.61386,465.61252 338.86491,456.17913 338.94739,446.488 338.61386,436.89965 338.47618,432.94165 339.76152,428.80892 338.61386,425.01846 337.57937,421.60178 336.00295,417.39485 332.67327,416.10757 327.59642,414.14482 322.03449,418.46873 316.83168,420.06796 306.75155,423.16637 297.10983,427.55518 287.12871,430.95905 280.90482,433.08159 274.41315,434.43453 268.31683,436.89965 265.5884,438.00293 263.35131,440.62917 260.41584,440.84024 257.28876,441.06508 254.18936,439.47607 251.48515,437.88975 246.85108,435.17135 240.36049,432.31768 239.60396,426.99866 239.33201,425.08667 241.03216,423.15626 242.61386,422.04816 Z"
       id="path829"
       inkscape:connector-curvature="0"
       sodipodi:nodetypes="aaaaaaaaaaaaaaaaaaaaaaa" />
    <path
       style="fill:#000000;stroke:none;stroke-width:1px;stroke-linecap:butt;stroke-linejoin:miter;stroke-opacity:1;fill-opacity:1"
       d="M 273.26733,382.4442 C 267.80684,387.14938 278.04255,396.12308 279.20792,403.23628 281.50481,417.25614 280.62905,431.61478 281.18812,445.81054 281.99377,466.26737 282.83824,486.72665 283.16832,507.19668 283.84409,549.10542 273.93104,592.05561 283.16832,632.93925 284.86008,640.42688 285.39308,653.77743 293.06931,653.73133 297.79458,653.70295 298.10806,645.49854 299.0099,640.86004 302.91967,620.75061 296.41974,599.95636 296.0396,579.4739 295.49452,550.10417 297.62365,520.72388 297.0297,491.35509 296.64214,472.19151 294.55462,453.09045 294.05941,433.92935 293.7695,422.71197 297.67268,410.88944 294.05941,400.26598 292.31641,395.14134 288.39829,390.75973 284.15842,387.3947 281.03483,384.91563 276.28832,379.84108 273.26733,382.4442 Z"
       id="path831"
       inkscape:connector-curvature="0"
       sodipodi:nodetypes="aaaaaaaaaaaaa" />
  </g>
</svg>
