<?xml version="1.0" encoding="UTF-8" standalone="no"?>
<!-- Created with Inkscape (http://www.inkscape.org/) -->

<svg
   xmlns:dc="http://purl.org/dc/elements/1.1/"
   xmlns:cc="http://creativecommons.org/ns#"
   xmlns:rdf="http://www.w3.org/1999/02/22-rdf-syntax-ns#"
   xmlns:svg="http://www.w3.org/2000/svg"
   xmlns="http://www.w3.org/2000/svg"
   xmlns:sodipodi="http://sodipodi.sourceforge.net/DTD/sodipodi-0.dtd"
   xmlns:inkscape="http://www.inkscape.org/namespaces/inkscape"
   width="512"
   height="512"
   viewBox="0 0 512 512"
   version="1.1"
   id="svg8"
   inkscape:version="0.92.4 (5da689c313, 2019-01-14)"
   sodipodi:docname="設.svg">
  <defs
     id="defs2" />
  <sodipodi:namedview
     id="base"
     pagecolor="#ffffff"
     bordercolor="#666666"
     borderopacity="1.0"
     inkscape:pageopacity="0.0"
     inkscape:pageshadow="2"
     inkscape:zoom="1.3249068"
     inkscape:cx="160.43957"
     inkscape:cy="230.7476"
     inkscape:document-units="px"
     inkscape:current-layer="layer1"
     showgrid="false"
     units="px"
     inkscape:window-width="1366"
     inkscape:window-height="705"
     inkscape:window-x="-8"
     inkscape:window-y="-8"
     inkscape:window-maximized="1" />
  <metadata
     id="metadata5">
    <rdf:RDF>
      <cc:Work
         rdf:about="">
        <dc:format>image/svg+xml</dc:format>
        <dc:type
           rdf:resource="http://purl.org/dc/dcmitype/StillImage" />
        <dc:title />
      </cc:Work>
    </rdf:RDF>
  </metadata>
  <g
     inkscape:label="圖層 1"
     inkscape:groupmode="layer"
     id="layer1"
     transform="translate(0,-161.53331)">
    <path
       style="fill:#000000;stroke:none;stroke-width:1px;stroke-linecap:butt;stroke-linejoin:miter;stroke-opacity:1;fill-opacity:1"
       d="M 135.85861,236.52145 C 131.57521,238.62849 130.9916,245.34573 131.32999,250.10731 131.64903,254.59657 134.34824,258.84667 137.36815,262.18364 141.16187,266.37565 147.1136,267.94701 151.70878,271.24088 157.2336,275.20113 163.20686,278.85023 167.55895,284.07197 171.59555,288.91518 171.65881,296.78137 176.61619,300.67691 179.6872,303.09013 184.11545,304.49898 187.93774,303.69599 192.66738,302.70238 196.60609,298.67822 199.25929,294.63875 202.40891,289.84348 204.78692,283.6833 203.78791,278.03381 202.49944,270.74737 196.49307,264.82874 190.95682,259.91933 185.81892,255.36316 179.07911,252.98121 172.84234,250.10731 166.47713,247.17422 159.7996,244.96909 153.21832,242.55961 147.46515,240.45331 141.3561,233.81718 135.85861,236.52145 Z"
       id="path826"
       inkscape:connector-curvature="0"
       sodipodi:nodetypes="aaaaaaaaaaaaa" />
    <path
       style="fill:#000000;stroke:none;stroke-width:1px;stroke-linecap:butt;stroke-linejoin:miter;stroke-opacity:1;fill-opacity:1"
       d="M 22.643101,342.18926 C 27.235577,338.75067 33.592429,338.62436 39.248042,337.66064 46.210156,336.47429 53.460165,337.55543 60.381604,336.1511 71.063919,333.9837 81.188469,329.58633 91.327175,325.58432 101.59203,321.53251 111.19243,315.893 121.51798,311.99846 131.12343,308.37552 141.16192,306.02429 150.95401,302.94122 159.52587,300.24235 167.89361,296.83962 176.61619,294.67691 190.75007,291.17249 205.2396,284.9159 219.63808,287.09105 229.98513,288.65416 248.76232,291.036 247.56457,301.43168 247.08964,305.55374 239.6288,304.18103 235.48825,304.45076 228.91744,304.8788 222.44265,302.47492 215.86423,302.18645 210.33251,301.94388 204.76762,302.07573 199.25929,302.63875 191.63224,303.41833 184.05897,304.83719 176.61619,306.67691 166.10733,309.27452 155.92263,313.05143 145.67062,316.52708 133.00866,320.81975 120.35533,325.17167 107.93212,330.11294 95.280494,335.14506 81.817185,338.88927 70.496085,346.45357 59.925077,353.51668 55.595556,371.02805 43.021893,372.90868 35.488288,374.03547 28.161276,367.8192 22.643101,362.56805 19.704312,359.77147 16.539003,356.0575 16.604941,352.00127 16.667361,348.16142 19.568965,344.491 22.643101,342.18926 Z"
       id="path828"
       inkscape:connector-curvature="0"
       sodipodi:nodetypes="aaaaaaaaaaaaaaaaaaaa" />
    <path
       style="fill:#000000;stroke:none;stroke-width:1px;stroke-linecap:butt;stroke-linejoin:miter;stroke-opacity:1;fill-opacity:1"
       d="M 116.23459,381.4373 C 116.28017,376.25084 123.83953,374.25363 128.31091,371.62529 134.15096,368.19243 140.80341,366.36403 147.18016,364.07759 152.64772,362.11714 158.2184,360.45234 163.7851,358.7942 168.2896,357.45245 172.6709,355.00307 177.37096,355.02035 184.69732,355.04728 194.73334,354.77723 198.50452,361.05851 200.35872,364.14687 198.44629,368.77762 196.24021,371.62529 191.7613,377.40679 183.02719,377.91801 176.61619,381.4373 168.90026,385.67293 161.13004,389.89927 153.97309,395.02316 150.48942,397.51722 148.44235,403.16121 144.16108,403.32563 138.57899,403.54001 134.97905,396.95047 130.57522,393.51362 125.64859,389.66877 116.17967,387.68642 116.23459,381.4373 Z"
       id="path830"
       inkscape:connector-curvature="0"
       sodipodi:nodetypes="aaaaaaaaaaaa" />
    <path
       style="fill:#000000;stroke:none;stroke-width:1px;stroke-linecap:butt;stroke-linejoin:miter;stroke-opacity:1;fill-opacity:1"
       d="M 103.4035,433.51644 C 109.17633,429.35562 117.43542,436.98805 124.53706,436.53552 132.09038,436.05421 139.16215,432.62566 146.42539,430.49736 153.75653,428.34917 160.68153,424.0361 168.31372,423.70443 174.22986,423.44733 180.26982,425.05591 185.67343,427.47828 188.79602,428.8781 193.70823,430.10493 193.9759,433.51644 194.28204,437.41827 188.91835,439.63065 185.67343,441.81891 178.19608,446.86138 169.07578,448.88066 160.76602,452.38569 152.97353,455.67253 144.96601,458.48305 137.36815,462.1977 133.21892,464.22629 129.90529,468.77326 125.29183,468.99063 120.34157,469.22387 115.36242,466.29759 111.70597,462.95247 107.88365,459.45561 106.17223,454.13967 104.15827,449.36661 103.13714,446.94654 102.04046,444.4415 101.89396,441.81891 101.73708,439.01043 101.12159,435.16115 103.4035,433.51644 Z"
       id="path832"
       inkscape:connector-curvature="0"
       sodipodi:nodetypes="aaaaaaaaaaaaaa" />
    <path
       style="fill:#000000;stroke:none;stroke-width:1px;stroke-linecap:butt;stroke-linejoin:miter;stroke-opacity:1;fill-opacity:1"
       d="M 76.231774,500.69097 C 72.401453,505.59676 77.565863,513.46382 80.760395,518.80545 84.599745,525.2253 91.951625,528.7388 97.365336,533.90085 103.28793,539.54812 110.01099,544.57128 114.72505,551.26056 120.81893,559.9078 124.5022,570.07249 128.31091,579.94182 131.43431,588.03535 132.75848,596.74677 135.85861,604.84924 137.34682,608.73881 137.36843,614.40907 141.142,616.17079 144.68105,617.82302 149.89619,616.09507 152.46355,613.15171 155.1302,610.09453 154.09225,605.13041 153.97309,601.07539 153.77016,594.16994 151.55211,587.47126 150.19924,580.69659 149.49382,577.16411 148.81721,573.62231 147.93493,570.12981 146.3944,564.03164 144.81424,557.92157 142.65154,552.01533 140.09552,545.03496 136.76687,538.35916 133.5943,531.63654 131.19332,526.5489 129.61325,520.89175 126.0466,516.54114 124.22796,514.32276 121.74196,512.68501 119.25367,511.25775 114.55269,508.56131 109.24702,507.08364 104.15827,505.21959 99.675943,503.57768 95.284352,501.45561 90.572405,500.69097 85.853919,499.92527 79.173574,496.92318 76.231774,500.69097 Z"
       id="path834"
       inkscape:connector-curvature="0"
       sodipodi:nodetypes="aaaaaaaaaaaaaaaaaa" />
    <path
       style="fill:#000000;stroke:none;stroke-width:1px;stroke-linecap:butt;stroke-linejoin:miter;stroke-opacity:1;fill-opacity:1"
       d="M 128.0466,497.14327 C 130.98978,490.84665 141.34623,493.09226 147.93493,490.87896 155.02584,488.49695 161.77981,485.01358 169.06849,483.33126 171.28837,482.81888 173.91527,483.76093 175.86142,482.57649 179.73588,480.21846 179.16865,472.86432 183.40912,471.25494 188.03044,469.50102 193.28056,472.91711 197.74975,475.02879 202.80053,477.41527 209.44207,479.58531 211.33561,484.8408 213.71431,491.44286 208.65488,498.70256 206.05222,505.21959 205.02266,507.79759 202.93399,509.88386 202.01406,512.50298 200.20817,517.64447 201.13054,523.4994 199.25929,528.61746 197.55537,533.27787 194.74831,537.52413 191.71159,541.44855 188.00995,546.23225 184.89028,554.96408 178.8805,554.27964 174.164,553.74249 172.64146,546.76636 171.3328,542.20332 169.94562,537.36651 171.3328,532.13972 171.3328,527.10792 171.3328,521.57294 176.14016,513.24621 171.3328,510.50298 165.74886,507.31662 161.06731,519.24512 154.72786,520.31499 148.46356,521.37218 140.94833,520.58244 136.0466,516.54114 130.64999,512.09183 125.0849,503.47952 128.0466,497.14327 Z"
       id="path836"
       inkscape:connector-curvature="0"
       sodipodi:nodetypes="aaaaaaaaaaaaaaaaaa" />
    <path
       style="fill:#000000;stroke:none;stroke-width:1px;stroke-linecap:butt;stroke-linejoin:miter;stroke-opacity:1;fill-opacity:1"
       d="M 132.08476,558.05349 C 133.2607,550.04679 146.91734,551.55459 154.50171,548.73194 162.52094,545.74745 170.49586,542.40057 178.8805,540.69378 184.81782,539.48517 191.04522,538.03842 196.99498,539.18424 202.5192,540.24811 208.87265,542.11729 212.09038,546.73194 213.39346,548.60073 214.14576,551.65436 212.84515,553.52487 209.29198,558.63497 200.79339,556.64581 194.73067,558.05349 186.96065,559.85758 178.82417,560.33263 171.3328,563.07257 167.316,564.5417 164.02182,567.62468 160.01125,569.11073 156.38533,570.45425 152.45205,572.53217 148.6897,571.63935 141.73141,569.98811 131.04556,565.12912 132.08476,558.05349 Z"
       id="path838"
       inkscape:connector-curvature="0"
       sodipodi:nodetypes="aaaaaaaaaaa" />
    <path
       style="fill:#000000;stroke:none;stroke-width:1px;stroke-linecap:butt;stroke-linejoin:miter;stroke-opacity:1;fill-opacity:1"
       d="M 279.49107,252.86208 C 273.6808,255.70601 274.95011,265.6578 276.24584,271.99565 277.92326,280.20052 287.22217,285.17157 289.8317,293.12921 291.08848,296.9617 291.15011,301.21181 290.58647,305.20553 289.92758,309.87415 287.41763,314.08692 285.8317,318.52708 282.47505,327.92477 279.12854,337.3261 275.75538,346.71788 273.0747,354.18159 267.04091,361.19188 267.67906,369.09667 267.9582,372.55436 269.31958,377.59242 272.7363,378.19207 279.41978,379.36505 284.01147,370.25096 288.09601,364.83236 294.05469,356.92751 296.18822,346.75505 300.66279,337.92495 306.0245,327.34416 313.97058,317.95585 317.75819,306.71507 319.38288,301.89334 320.46172,296.68877 320.0225,291.61967 319.74779,288.44916 318.79067,285.19555 317.00342,282.56243 313.49373,277.39168 307.33007,274.64196 302.66279,270.48611 298.27628,266.58026 294.59909,261.84041 289.8317,258.40979 286.6567,256.12506 283.00439,251.14243 279.49107,252.86208 Z"
       id="path840"
       inkscape:connector-curvature="0"
       sodipodi:nodetypes="aaaaaaaaaaaaaaaa" />
    <path
       style="fill:#000000;stroke:none;stroke-width:1px;stroke-linecap:butt;stroke-linejoin:miter;stroke-opacity:1;fill-opacity:1"
       d="M 335.11791,291.61965 C 339.13446,288.54726 345.18062,293.6234 350.21331,293.12919 356.23299,292.53806 363.2401,292.0662 367.57302,287.8458 369.28279,286.18043 368.92394,283.25798 369.83733,281.05287 370.69848,278.97387 371.15643,276.4891 372.85642,275.01471 375.26057,272.9296 378.85208,272.86415 381.91366,271.99563 386.14069,270.79649 390.37316,268.53502 394.74475,268.97655 398.32874,269.33853 401.79892,271.18778 404.55676,273.50517 410.64782,278.62342 417.01747,285.25318 418.14262,293.12919 418.93022,298.6424 416.84275,305.08741 412.85923,308.97937 410.41155,311.37079 405.93145,310.15691 403.04722,311.99845 400.19435,313.81998 398.28694,316.83964 396.25429,319.54615 391.09743,326.41262 386.51851,333.75864 382.66843,341.43448 379.27506,348.19978 377.61742,355.7334 374.36596,362.56804 371.133,369.3638 368.38368,376.70841 363.27055,382.23022 358.68137,387.1862 352.70056,396.04756 346.43946,393.51361 343.10034,392.16222 344.66624,386.51542 344.17515,382.94683 343.62529,378.95119 342.96632,374.87816 343.42038,370.87051 344.21799,363.83071 347.13408,357.18439 349.45854,350.49172 351.2366,345.37229 356.44072,340.73288 355.4967,335.39632 354.73168,331.07166 349.48036,328.98703 346.70377,325.58431 343.13916,321.21587 339.07673,317.07691 336.62745,311.99845 334.93078,308.48049 333.79471,304.57817 333.60837,300.67689 333.46235,297.61965 332.68687,293.47923 335.11791,291.61965 Z"
       id="path821"
       inkscape:connector-curvature="0"
       sodipodi:nodetypes="aaaaaaaaaaaaaaaaaaaaaaaa" />
    <path
       style="fill:#000000;stroke:none;stroke-width:1px;stroke-linecap:butt;stroke-linejoin:miter;stroke-opacity:1;fill-opacity:1"
       d="M 301.15326,349.73695 C 298.40985,353.74739 305.92279,358.49105 306.43665,363.32281 307.2181,370.67067 305.1134,378.15268 302.92711,385.21114 300.95087,391.59144 297.38537,397.37055 294.36033,403.32562 291.41574,409.12231 287.88631,414.6142 285.03878,420.45919 282.36144,425.95485 275.66281,431.54646 277.75539,437.29028 278.33311,438.87604 280.59649,439.58015 282.28401,439.55459 285.99827,439.49833 289.05688,436.40719 292.09602,434.2712 295.5943,431.81251 298.71474,428.81958 301.64372,425.70442 306.18296,420.87663 309.40374,414.90711 313.98435,410.11856 317.43636,406.50984 321.16773,403.10204 325.3059,400.30654 330.62525,396.7131 338.96422,396.91092 342.43946,391.51361 346.16884,385.72161 343.42038,370.87051 343.42038,370.87051 V 370.87051 C 343.42038,370.87051 334.2511,357.19892 327.57021,352.75603 324.92028,350.99379 321.65427,350.24671 318.51297,349.73695 312.80112,348.81004 304.42038,344.96093 301.15326,349.73695 Z"
       id="path823"
       inkscape:connector-curvature="0"
       sodipodi:nodetypes="aaaaaaaaaaaacaaaa" />
    <path
       style="fill:#000000;stroke:none;stroke-width:1px;stroke-linecap:butt;stroke-linejoin:miter;stroke-opacity:1;fill-opacity:1"
       d="M 237.48826,443.06413 C 243.15642,437.53742 253.51813,447.20474 261.15044,445.10229 265.03456,444.03234 267.04992,439.00589 270.96246,438.04505 276.14549,436.7722 281.53837,439.49322 286.81263,440.30936 288.32499,440.54338 289.81284,441.14146 291.34125,441.06413 299.93596,440.62928 308.02294,436.80017 316.24866,434.2712 325.14646,431.5356 333.79215,428.0275 342.66561,425.21396 354.65678,421.41188 367.34535,419.63309 378.89458,414.64718 391.04457,409.40192 401.98766,401.68302 413.12354,394.53269 415.09983,393.26372 416.56971,390.80748 418.89739,390.49453 426.31099,389.49779 432.87161,395.87456 440.03095,398.04223 446.98071,400.14645 454.35422,400.80633 461.16451,403.32562 465.38554,404.88708 471.1172,405.39574 473.24083,409.36379 475.15505,412.94054 474.92446,418.93791 471.73129,421.44011 468.34152,424.09636 463.15454,420.599 458.9002,419.93057 454.59374,419.25395 450.41948,417.68077 446.06911,417.40195 442.29463,417.16004 438.50583,417.7317 434.74756,418.15672 422.08875,419.58831 409.46907,421.54103 397.00906,424.19488 388.09456,426.09357 379.24913,428.40093 370.59211,431.25212 362.11649,434.04357 354.1911,438.36796 345.68469,441.06413 336.55218,443.95874 326.76997,444.60599 317.7582,447.85706 306.96222,451.7518 296.81001,457.31556 286.81263,462.95246 278.72764,467.51108 272.69608,478.11764 263.41475,478.04786 257.97218,478.00694 253.85462,472.65351 249.82889,468.99062 245.99256,465.50006 242.55265,461.43883 240.01688,456.9143 239.01903,455.13385 238.3842,453.14077 237.97872,451.14045 237.4429,448.49714 235.5572,444.947 237.48826,443.06413 Z"
       id="path825"
       inkscape:connector-curvature="0"
       sodipodi:nodetypes="aaaaaaaaaaaaaaaaaaaaaaaaaaa" />
    <path
       style="fill:#000000;stroke:none;stroke-width:1px;stroke-linecap:butt;stroke-linejoin:miter;stroke-opacity:1;fill-opacity:1"
       d="M 218.61901,493.63372 C 231.56906,489.1092 246.13008,494.54374 259.6409,496.91711 272.746,499.21921 285.33146,503.85984 298.13418,507.48389 316.29005,512.62325 334.53225,517.50205 352.47762,523.33407 372.30687,529.77833 392.29259,536.00864 411.34969,544.46763 426.47258,551.18032 441.16377,558.9881 455.12635,567.8655 463.88646,573.43517 473.7901,578.24426 480.07193,586.5086 483.01231,590.37695 484.00939,595.42558 485.35532,600.09446 486.44118,603.86118 489.97532,608.53785 487.58147,611.64216 485.27182,614.63728 479.99261,613.00705 476.25992,612.39693 471.69507,611.6508 467.59267,609.12772 463.42882,607.11354 450.44991,600.83524 438.16299,593.21196 425.69032,585.97998 414.26838,579.35724 403.3393,571.88172 391.72567,565.60119 375.98829,557.09058 359.59422,549.85203 343.42038,542.20332 333.65105,537.58334 324.00733,532.65773 313.98435,528.61746 301.88186,523.73894 289.42496,519.77463 277.00062,515.78637 266.00997,512.25833 254.88986,509.14463 243.79073,505.97435 236.51315,503.89563 229.02839,502.48659 221.9024,499.93619 219.56944,499.10122 215.52122,499.36053 215.10947,496.91711 214.84326,495.33739 217.10666,494.16211 218.61901,493.63372 Z"
       id="path827"
       inkscape:connector-curvature="0"
       sodipodi:nodetypes="aaaaaaaaaaaaaaaaaaaa" />
    <path
       style="fill:#000000;stroke:none;stroke-width:1px;stroke-linecap:butt;stroke-linejoin:miter;stroke-opacity:1;fill-opacity:1"
       d="M 325.3059,416.15672 C 332.68133,413.51067 337.50291,426.11239 342.66561,432.00689 347.30997,437.30957 351.91123,442.91093 354.74193,449.3666 356.60487,453.6152 358.26106,458.3404 357.76101,462.95246 356.92382,470.67397 351.74961,477.3127 347.949,484.08602 344.84175,489.62366 340.88332,494.63875 337.38222,499.93619 332.57286,507.21312 328.48051,515.00531 323.04159,521.82453 317.1613,529.19713 310.41262,535.87858 303.41757,542.20332 296.77231,548.21179 289.75606,553.86562 282.28401,558.80826 272.70481,565.14475 262.61606,570.81087 252.0932,575.4132 244.07498,578.92008 235.58835,581.26884 227.18579,583.71567 222.20597,585.1658 217.25755,587.04018 212.09039,587.48952 202.79281,588.29804 179.95691,593.79347 184.1639,585.48952 184.1639,585.48952 206.41895,577.8983 217.37378,573.63935 229.84254,568.79183 242.60141,564.43805 254.35751,558.05349 261.83871,553.99056 268.67956,548.81961 275.49108,543.71286 281.4964,539.21054 287.55232,534.68834 292.85079,529.37223 301.81062,520.38258 309.89602,510.45175 317.00343,499.93619 321.9845,492.5666 326.27519,484.6902 329.83452,476.53832 332.38137,470.70531 334.75332,464.68942 335.87268,458.42384 336.35964,455.6981 337.12511,452.70795 336.13699,450.12137 334.40013,445.57483 328.25687,443.8979 326.06067,439.55459 324.10087,435.67879 323.86753,431.06603 323.79636,426.7235 323.73806,423.16596 321.95689,417.35823 325.3059,416.15672 Z"
       id="path829"
       inkscape:connector-curvature="0"
       sodipodi:nodetypes="aaaaaaaaaaaasaaaaaaaaaaa" />
  </g>
</svg>
